<svg xmlns="http://www.w3.org/2000/svg" viewBox="0 0 451.75 29.66"><defs><style>.cls-1{fill:#481b0f;stroke:#fff;stroke-miterlimit:10;stroke-width:4px;}</style></defs><g id="Capa_2" data-name="Capa 2"><g id="Capa_4" data-name="Capa 4"><path class="cls-1" d="M8.14,14.32c.32-2.84,5.51-2.15,7.24-1.62,3.81,1.15,6.74,4.56,10,6.64s7.46,3.38,11.49,2.32c3.74-1,6.63-3.75,9.22-6.49,2.77-2.93,5.5-6.34,9.72-7,5.08-.86,10.28,1.72,14.54,4.21,8.14,4.75,17.07,11.42,27.06,8.26C105,18.22,110.29,9.86,118.25,9.15c7-.62,13.22,5.26,18.61,8.82,5.86,3.88,12.74,7,19.81,4.54,7.22-2.56,12.16-11.2,20-11.76,4-.29,7.75,1.68,11.15,3.51,3.74,2,7.44,4.22,11.51,5.5,8,2.51,15.52-.31,22.64-4,6.74-3.46,14.4-8.48,22.2-5.33,7.12,2.89,12.17,9.51,19.69,11.64,8.32,2.36,13.78-3.11,19.35-8.33,2.67-2.51,5.66-4.41,9.46-3.62,3.27.68,6.19,2.74,8.91,4.58,5.71,3.86,11.89,8.6,19.21,7.69,9.28-1.14,14.48-10.82,24.19-10.78s14.41,8.9,22.64,12.23A12.86,12.86,0,0,0,379,23.2c4-2.28,6.77-6.18,11.21-7.85a19.9,19.9,0,0,1,12.46-.44c4.53,1.3,7.3,4.24,10.56,7.43,7.16,7,17.23,6.79,25.23,1.13,4-2.86,7.31-6.54,10.51-10.28,2.54-3-1.77-7.32-4.33-4.32-5.6,6.55-15.91,17.93-25.31,10.74-3.63-2.78-6.14-6.53-10.29-8.69A25.81,25.81,0,0,0,396.63,8a25.28,25.28,0,0,0-11.9,3.2c-3.74,2.13-7,7.12-11.4,7.6-4.07.45-7.81-3.22-10.68-5.58-3.33-2.71-6.65-5.3-10.8-6.63a23,23,0,0,0-13.7,0c-4.4,1.38-7.77,4.25-11.49,6.83-3.46,2.4-6.92,3.79-11.08,2.47-3.41-1.09-6.43-3.33-9.35-5.33-5.6-3.84-12-8.08-19.09-6.2-3.75,1-6.7,3.61-9.4,6.26s-5.53,5.91-9.6,6c-3.63.09-7-2.3-9.8-4.29-3.17-2.22-6.2-4.7-9.66-6.46-7.51-3.81-14.92-2.56-22.31.87-7.05,3.28-14.73,9.23-23,7.77s-14.48-8.11-22.74-9.57C171.74,3.35,166.12,9.1,159.54,14c-3,2.24-6.35,3.86-10.19,3.19-3.32-.58-6.32-2.44-9.1-4.26C134.34,9,128.58,4.07,121.32,3.16c-8.82-1.11-14.57,5.18-21.39,9.5-9.72,6.15-18.42-1-26.9-5.87-8.17-4.69-18.1-7.46-26.11-1-3.08,2.5-5.34,5.88-8.47,8.29-3.61,2.78-7.14,1.85-10.68-.53S21.36,8.19,17.34,6.91A15,15,0,0,0,7.53,7,8.4,8.4,0,0,0,2,14.32c-.44,3.91,5.69,3.87,6.12,0Z"/></g></g></svg>