<svg xmlns="http://www.w3.org/2000/svg" viewBox="0 0 6.85 5.25"><g id="Capa_2" data-name="Capa 2"><g id="Capa_4" data-name="Capa 4"><path d="M3.43,5.25H.71A.78.78,0,0,1,.09,4.8.82.82,0,0,1,0,4.42V1.5A.83.83,0,0,1,.15,1,.81.81,0,0,1,.82.65H1.9s0,0,.05,0S2,.43,2.09.33a.52.52,0,0,1,.19-.2A.76.76,0,0,1,2.72,0H4.16a.76.76,0,0,1,.56.26,1,1,0,0,1,.09.18,1.24,1.24,0,0,1,.1.2H6a.81.81,0,0,1,.63.28.75.75,0,0,1,.2.52v3a.79.79,0,0,1-.32.67A.81.81,0,0,1,6,5.25H3.43Zm0-.43H6a.38.38,0,0,0,.31-.16.41.41,0,0,0,.07-.26V1.46A.39.39,0,0,0,6,1.08H4.75A.23.23,0,0,1,4.59,1L4.41.6A.25.25,0,0,0,4.16.43c-.18,0-.36,0-.53,0H2.69a.26.26,0,0,0-.24.15L2.3.89A.41.41,0,0,1,2.23,1a.21.21,0,0,1-.18.08H.81a.36.36,0,0,0-.24.09.39.39,0,0,0-.14.32v3a.39.39,0,0,0,.39.38h2.6Z"/><path d="M4.92,2.89a1.5,1.5,0,1,1-1.49-1.5A1.49,1.49,0,0,1,4.92,2.89ZM3.42,4A1.07,1.07,0,1,0,2.36,2.88,1.06,1.06,0,0,0,3.42,4Z"/></g></g></svg>