<svg xmlns="http://www.w3.org/2000/svg" viewBox="0 0 48.99 48.99"><defs><style>.cls-1{fill:#e36d13;}</style></defs><g id="Capa_2" data-name="Capa 2"><g id="Capa_6" data-name="Capa 6"><path class="cls-1" d="M49,10.21c-.32,1.32-.65,2.63-1,3.95l-4.53,20c-.28,1.27-.71,1.64-1.86,1.64H16.49c-1.15,0-1.56-.37-1.85-1.65Q11.19,19,7.76,3.74c-.09-.36-.2-.49-.54-.49-1.84,0-3.67,0-5.5,0A2.39,2.39,0,0,1,1,3.17a1.56,1.56,0,0,1-1-1.5A1.58,1.58,0,0,1,1,.1,2.47,2.47,0,0,1,1.7,0H8.4c1,0,1.5.4,1.77,1.57.46,2,.93,4,1.35,6,.1.47.28.58.68.58q17.48,0,35,0A1.7,1.7,0,0,1,49,9.44ZM12.41,11.43c.33,1.48.67,2.89,1,4.31.08.41.21.55.59.55,2.57,0,5.13,0,7.7,0,.16,0,.33,0,.48,0V11.43Zm33.33,0H36v4.84h2.55c1.89,0,3.79,0,5.69,0a.57.57,0,0,0,.45-.29C45.05,14.49,45.39,13,45.74,11.44Zm-20.7,0v4.8H33.1v-4.8Zm0,8.14v4.81h8.08V19.57Zm0,8.14v4.82h8.08V27.71ZM22.15,24.4V19.57H14.26c.33,1.48.66,2.93,1,4.38.08.37.22.49.55.49,2,0,4,0,5.93,0Zm13.84,0H41.9c.9,0,.9,0,1.12-1l.87-3.86H36ZM22.17,27.71H16.09c.34,1.48.68,2.93,1,4.38.08.38.22.49.55.49,1.37,0,2.74,0,4.11,0,.14,0,.28,0,.43,0ZM36,32.57c1.6,0,3.16,0,4.71,0,.12,0,.3-.24.34-.41.31-1.3.6-2.61.89-3.91,0-.17.06-.34.09-.52H36Z"/><path class="cls-1" d="M33.15,43.06c0-3.25,2.32-5.92,5.14-5.92s5.16,2.66,5.16,6S41.1,49,38.29,49,33.14,46.29,33.15,43.06Zm5.13,2.66A2.69,2.69,0,1,0,36,43.07,2.51,2.51,0,0,0,38.28,45.72Z"/><path class="cls-1" d="M25,43.07C25,46.32,22.66,49,19.85,49s-5.14-2.68-5.15-5.92,2.32-6,5.18-5.93S25,39.82,25,43.07Zm-5.13,2.65a2.69,2.69,0,0,0,0-5.33,2.69,2.69,0,0,0,0,5.33Z"/></g></g></svg>