<svg xmlns="http://www.w3.org/2000/svg" viewBox="0 0 10.38 10.37"><defs><style>.cls-1{fill:#e26d26;}.cls-2{fill:#fff;}</style></defs><g id="Capa_2" data-name="Capa 2"><g id="Capa_4" data-name="Capa 4"><ellipse class="cls-1" cx="5.19" cy="5.18" rx="5.19" ry="5.18"/><path class="cls-2" d="M2.54,4.72A.52.52,0,0,0,2.43,5V7.77a.51.51,0,0,0,.51.51h4.5A.51.51,0,0,0,8,7.77V5a.52.52,0,0,0-.11-.32.13.13,0,0,0,0-.1L5.29,2.11a.14.14,0,0,0-.19,0L2.58,4.62A.18.18,0,0,0,2.54,4.72Zm.72,3.34L4.55,6.77l.55.55a.11.11,0,0,0,.09,0,.13.13,0,0,0,.1,0l.55-.55L7.12,8.06ZM3.68,5.6v-1H6.75v.91L5.19,7.11ZM7.73,5V7.77a.29.29,0,0,1-.23.28L6,6.58,7.7,4.92A.21.21,0,0,1,7.73,5ZM5.19,2.4,7.51,4.72l-.59.59V4.56a.08.08,0,0,0-.08-.08H3.59a.08.08,0,0,0-.08.08v.8l-.64-.64ZM2.66,5a.21.21,0,0,1,0-.12L4.35,6.58,2.88,8.05a.29.29,0,0,1-.22-.28Z"/></g></g></svg>