<svg xmlns="http://www.w3.org/2000/svg" viewBox="0 0 10.66 10.59"><defs><style>.cls-1{fill:#fff;}.cls-2{fill:#e26d26;}</style></defs><g id="Capa_2" data-name="Capa 2"><g id="Capa_4" data-name="Capa 4"><ellipse class="cls-1" cx="5.33" cy="5.29" rx="5.3" ry="5.29"/><path class="cls-2" d="M10.66,5.32a5.33,5.33,0,0,1-4.49,5.27V6.86H7.65V5.32H6.17v-1A.77.77,0,0,1,7,3.49H7.7V2.18a8.32,8.32,0,0,0-1.19-.1,1.88,1.88,0,0,0-2,2.06V5.32H3.15V6.86H4.5v3.73A5.33,5.33,0,0,1,5.33,0l.44,0A5.32,5.32,0,0,1,10.66,5.32Z"/></g></g></svg>