<svg xmlns="http://www.w3.org/2000/svg" viewBox="0 0 1195.67 597.85"><defs><style>.cls-1{fill:#d2c29e;opacity:0.31;}.cls-2{fill:#483117;}.cls-3{font-size:29.36px;fill:#3a2d0b;font-family:BubbleGum;}.cls-4{font-size:41.61px;fill:#ce5f3c;font-family:Chalkboard;}.cls-5{letter-spacing:0.08em;}.cls-6{letter-spacing:-0.04em;}.cls-7{letter-spacing:0.08em;}.cls-8{letter-spacing:0em;}.cls-9{letter-spacing:-0.03em;}</style></defs><g id="Capa_2" data-name="Capa 2"><g id="Capa_3" data-name="Capa 3"><rect class="cls-1" width="1195.67" height="597.85"/><path class="cls-2" d="M109,53.56V393.25a.15.15,0,0,0,.3,0V53.56a.15.15,0,0,0-.3,0Z"/><path class="cls-2" d="M190,54.52l-2,65.62-1,32.81c-.32,10.62-.77,21.26-.5,31.89.55,21.5,5.9,42.36,8.52,63.62A445.08,445.08,0,0,1,198,311.89c-.49,24-2.44,48-4.78,71.94,0,.19.28.19.3,0,4.15-42.39,7.1-85.21,2.77-127.72-1.07-10.45-2.69-20.81-4.51-31.15-1.89-10.72-3.81-21.46-4.52-32.34-.7-10.59-.4-21.21-.09-31.81q.49-16.4,1-32.8l2.2-73.49a.15.15,0,0,0-.3,0Z"/><path class="cls-2" d="M271.44,58.1c-2.76,22.5-5.49,45-6.34,67.71-.84,22.46.35,44.94,4.95,67,2.3,11,5.18,21.88,7.47,32.89a314.21,314.21,0,0,1,5,32.31,319.85,319.85,0,0,1-.08,64.45,316.6,316.6,0,0,1-13.11,63.37c-.8,2.55-1.65,5.09-2.52,7.62-.06.18.23.26.29.08a317.37,317.37,0,0,0,14.6-62.18,319.68,319.68,0,0,0,1.88-64.42,313.67,313.67,0,0,0-3.88-31.6c-1.92-11-4.61-21.89-7.14-32.78a277.5,277.5,0,0,1-6-33.85,291.62,291.62,0,0,1-1.39-34.08c.32-22.78,2.81-45.47,5.54-68.07q.51-4.22,1-8.43c0-.19-.28-.18-.3,0Z"/><path class="cls-2" d="M385.66,53.4c4.73,11.14,6.56,23.17,7.48,35.16s1.84,24,.92,35.88c-.91,11.68-5.07,22.18-9.73,32.8-4.13,9.43-8.39,19.1-9.26,29.48-.92,11.07,2.29,21.85,5.88,32.18,3.94,11.33,8,22.43,9.42,34.42s.87,24.33-.49,36.4c-.67,5.86-1.23,11.91-3,17.55a28.83,28.83,0,0,1-3.87,7.87c-1.53,2.17-3.27,4.19-4.68,6.45-5.91,9.48-2.42,21,.17,31L388,389.33l2.42,9.26c0,.19.33.11.28-.08l-9.64-37.07c-1.54-5.91-3.24-11.8-4.52-17.77-1.22-5.69-2-11.82-.11-17.46s6.36-9.34,8.91-14.45c2.41-4.81,3.26-10.19,4-15.47,1.6-11.85,2.61-23.84,1.93-35.8s-3.47-23-7.38-34.11c-3.8-10.82-8.13-21.79-8.65-33.38-1-22.48,14.94-40.74,18.37-62.32,1.88-11.81.91-24,.23-35.85-.66-11.43-1.75-23-5.14-33.95a80.09,80.09,0,0,0-2.8-7.63c-.08-.18-.33,0-.26.15Z"/><path class="cls-2" d="M467.22,58c-13,16.35-14.52,39.46-4.58,57.64,2.79,5.1,6.11,10,8.07,15.49a28.64,28.64,0,0,1,.63,17c-2.88,11.12-10.24,20.42-15.6,30.38a89.43,89.43,0,0,0-6.9,16.7c-1.67,5.54-3.16,11.51-3.06,17.34a21,21,0,0,0,5.56,13.66c3.34,3.88,7.43,7.22,10,11.74,6.27,11.22,1.06,24.52-3.6,35.25-2.37,5.46-4.82,11-6.08,16.8a44.42,44.42,0,0,0-.15,17.12c2.12,12.05,7.91,23,12.73,34.1,4.9,11.27,9.19,24,7.1,36.43a34.21,34.21,0,0,1-2.71,8.72c-.09.17.17.32.25.15,4.9-10.55,3.59-22.37.25-33.17-3.64-11.79-9.83-22.55-14-34.14a64.32,64.32,0,0,1-4.05-18.45,46.08,46.08,0,0,1,3.11-18.21c4-10.86,10.38-21.23,10.27-33.16A23.81,23.81,0,0,0,459.7,235c-3-4-7-7.15-9.91-11.21-3.86-5.34-4.18-11.55-3.15-17.87a87.5,87.5,0,0,1,5-17.9c4.35-11,11.62-20.38,16.68-31a41.26,41.26,0,0,0,4.27-14.59,29.9,29.9,0,0,0-3.06-15c-2.45-5.23-5.77-10-8.27-15.19a49.38,49.38,0,0,1-4.55-16A52.88,52.88,0,0,1,462.86,65a49.08,49.08,0,0,1,4.57-6.84c.12-.15-.09-.37-.21-.22Z"/><path class="cls-2" d="M543.25,54a45.37,45.37,0,0,0-21.8,30.28c-1.28,6.36-1.3,13.29,1,19.43,2.16,5.88,6.56,9.86,11.83,13s11.47,5.7,16,10.25c4.93,5,6.59,12,5.83,18.8-1.71,15.37-13.21,25.92-22.93,36.82-4.56,5.1-8.84,10.53-11.69,16.79a51.44,51.44,0,0,0-4.4,17.28,54.54,54.54,0,0,0,9.12,34.92c7.86,11.45,22.38,17.49,26.38,31.57,3.61,12.75-1.2,26.76-8.86,37.07-4.19,5.64-10,9.78-14.23,15.35s-5.23,12.07-4.28,18.84a74.38,74.38,0,0,0,5.9,19.65c2.36,5.29,5.51,10.5,10.16,14.09a20.66,20.66,0,0,0,7.25,3.61.15.15,0,1,0,.08-.28c-12.8-3.54-18.26-18.11-21.48-29.64-2.08-7.47-3.31-15.83.56-23,3.37-6.2,9.44-10.29,13.95-15.57,7.75-9.05,13.07-21.18,12.39-33.27a30.32,30.32,0,0,0-5.53-16c-4.12-5.73-10-9.77-15.11-14.55a53.09,53.09,0,0,1-4.72-71c8.34-10.67,19.65-19.4,25-32.18,2.38-5.74,3.67-12.18,2.56-18.36A22.06,22.06,0,0,0,547.18,124c-4.88-3.6-10.6-5.85-15.59-9.3a24.3,24.3,0,0,1-10.5-18.23C519.74,83,525.5,69.3,535.3,60.19a42.67,42.67,0,0,1,8.1-5.91.15.15,0,0,0-.15-.26Z"/><path class="cls-2" d="M647.74,53.55c16.8,2.91,27.56,18.51,30.85,34.27,1.93,9.3,1.79,18.91.92,28.33-.76,8.14-2.12,16.53-6,23.85-3.4,6.5-8.77,11.68-15.91,13.74a28.72,28.72,0,0,1-19.64-1.5,22.7,22.7,0,0,1-12.64-14,25.46,25.46,0,0,1,2.51-19.16c3.09-5.61,8.24-10.22,14.55-11.75,7.91-1.92,16.15,1.09,22.26,6.13,14.25,11.78,15.18,31.5,13.4,48.54a200.69,200.69,0,0,1-5.39,29.57c-2.24,8.57-4.81,17.6-10.53,24.58-5.31,6.47-14.33,11.08-22.74,8.33-7.29-2.39-11.54-9.57-13.28-16.66-1.88-7.65-1.6-17.16,3.25-23.71s14-8.11,21.61-5.71c8,2.54,13.83,9.26,17.73,16.41,4.48,8.19,7,17.41,8.57,26.57a162.13,162.13,0,0,1,2.48,27.9c0,9.21-1.3,18.77-5.63,27-7.11,13.57-24.2,24-38.78,14.91a26.33,26.33,0,0,1-11.92-17.52,22.37,22.37,0,0,1,7-20,25.77,25.77,0,0,1,19.42-7.16c8.77.7,16.23,6.87,21.31,13.69,10.93,14.69,12.23,34,9.32,51.46a161.54,161.54,0,0,1-7.19,27.55c-2.9,8.13-7.1,16.33-14.31,21.44-6.59,4.68-15.68,6.72-23.06,2.64-5.79-3.21-8.95-9.39-10-15.74a35.39,35.39,0,0,1,3-20.79c2.24-4.64,5.78-7.68,11.1-7.81a30.06,30.06,0,0,1,11.62,2.4c14,5.56,25,19.67,25.4,35,.38,14.58-9.87,27.57-23.33,32.43a30,30,0,0,1-19.61.49.15.15,0,0,0-.08.29c13.86,4.57,29.21-2.36,37.38-13.92,9.12-12.9,6.94-29.73-2.61-41.76a41.2,41.2,0,0,0-18.64-13.38c-3.8-1.32-8.08-2.26-12.11-1.66-4.33.65-7.22,3.52-9.14,7.3-5.69,11.23-6,29.41,5.93,36.91,6.73,4.24,15.21,3.17,21.88-.62,7.72-4.38,12.5-12.16,15.72-20.21a149.08,149.08,0,0,0,8.22-30.14c1.64-9.68,2.1-19.64.27-29.32a54.39,54.39,0,0,0-10.57-24c-5.2-6.5-12.62-12.15-21.22-12.59-14.32-.72-28.12,12-26.17,26.69a26.5,26.5,0,0,0,11.25,18,23.53,23.53,0,0,0,21.36,2.63c7.53-2.66,13.77-8.47,17.81-15.28,4.82-8.13,6.41-17.8,6.61-27.13A156.28,156.28,0,0,0,677.55,221c-1.69-9.67-4.43-19.45-9.46-28-4.15-7-10.29-13.29-18.39-15.33-7.2-1.81-15.45-.23-20.22,5.81-5,6.26-5.45,15.44-3.93,23,1.43,7.08,5.21,14.44,12.07,17.57,7.33,3.35,15.82.6,21.62-4.47,7-6.08,10.2-15.3,12.65-24a202.17,202.17,0,0,0,6.26-31.49c1.14-9.79,1.63-19.89-.63-29.56-2-8.44-6.18-16.21-13-21.69-5.94-4.76-13.73-7.58-21.37-6.07-13,2.59-21.18,17.56-18.41,30.09,3,13.63,18.38,20.3,31.21,17.54,16.67-3.59,22-21.28,23.65-36.19,2-18.39,1.13-39-11.87-53.53a35.07,35.07,0,0,0-19.9-11.5c-.19,0-.27.26-.08.29Z"/><path class="cls-2" d="M733.08,51c8.44,1.92,13.62,9.89,15.35,17.9a61,61,0,0,1,.91,15,89.86,89.86,0,0,1-1,12.48c-.66,3.79-1.84,7.67-4.32,10.69a15.19,15.19,0,0,1-11.44,5.27A36.78,36.78,0,0,1,720,110.2c-4.31-1.39-8.63-3.61-11.17-7.51-2.33-3.56-2.94-8.34-.38-12,2-2.9,5.56-4.06,9-4.3a30.31,30.31,0,0,1,10.36,1.31,41.15,41.15,0,0,1,11.29,5c7.46,5,9.3,14,9.84,22.33.59,9.33.76,19.13-1.74,28.21C745,151.2,740.26,158.86,733,163a20.21,20.21,0,0,1-21.43-.65,14.43,14.43,0,0,1-4.43-19.33c3.66-6.44,11.28-11,18.76-10.28,8,.72,14.64,6.3,18.64,12.93,4.54,7.53,5.65,16.31,4.58,24.94-1.18,9.53-4.66,18.85-8.65,27.53-3.54,7.68-9.24,15.71-18.57,15.87a11.48,11.48,0,0,1-10.61-6.28,23,23,0,0,1-2.45-14c1.36-8,9.34-11.7,16.85-10.6,7.87,1.15,13.37,7.46,16.42,14.42,3.61,8.24,4.66,17.7,4.35,26.61A73.71,73.71,0,0,1,740,252.06c-1.68,3.71-3.82,7.41-7,10a13.7,13.7,0,0,1-12.16,2.57c-8.92-2.31-13.33-11.94-11.48-20.56.9-4.2,3.46-8.49,7.86-9.63s9.26,1,13,3.28c12.18,7.58,16.94,22.77,17.34,36.42a56.22,56.22,0,0,1-3.13,21.21c-2.47,6.64-6.89,13.66-14,15.88-8.14,2.53-17.43-2.65-19.15-11.1a15.08,15.08,0,0,1,11.62-17.76c7.34-1.45,15.37,2,20,7.67,5.66,6.88,7.29,16.14,7.32,24.82.06,16.15-4.57,35.22-18.28,45.3-6.52,4.8-16.5,6.66-21.5-1.21-3.71-5.85-3-14,2-18.88,5.51-5.27,14.25-6.13,21.16-3.44,7.91,3.07,13.41,10.45,16.38,18.15,3.19,8.29,4.36,18.63-1,26.3-4.75,6.75-13.65,10.38-21.72,8.27a21.14,21.14,0,0,1-15-15.72c0-.19-.33-.11-.29.08a21.4,21.4,0,0,0,15.95,16.1c7.86,1.75,16.33-1.78,21.08-8.18,5.79-7.82,4.61-18.61,1.25-27.17-3-7.71-8.56-15.05-16.49-18.12-7.14-2.77-16.24-1.79-21.78,3.84-4.73,4.81-5.38,12.64-2,18.42,4.16,7.19,12.8,7.33,19.46,3.6,7.83-4.38,13.26-12.55,16.49-20.72a72.19,72.19,0,0,0,4.68-27.72c-.17-8.85-2.12-18.51-8.45-25.12-5.09-5.3-13.32-8.31-20.55-6.25A15.4,15.4,0,0,0,710.86,300c1.47,7.91,9.62,13.32,17.48,12C736,310.77,741.1,304,744,297.22c3.1-7.3,4.1-15.42,3.84-23.3a54.59,54.59,0,0,0-5.35-22.68A33,33,0,0,0,727,235.7c-3.82-1.76-8.52-2.82-12.36-.52-3.4,2-5.23,6-5.83,9.84-1.29,8.18,2.77,17,10.94,19.63a14,14,0,0,0,11.49-1.06c3.68-2.14,6.2-5.79,8.09-9.51a72.19,72.19,0,0,0,7.37-29.55c.36-9.53-.79-19.81-5-28.47-3.49-7.12-9.65-13-17.89-13.34-7.39-.33-14.34,3.87-15.36,11.58-1.05,7.88,2.5,18.85,11.5,19.94s15.62-5.88,19.42-13.18a111.09,111.09,0,0,0,5.88-14,77.54,77.54,0,0,0,4.07-15.85c1.25-9.28,0-18.77-5.18-26.72C739.9,138.06,733,132.69,725,132.42c-7.5-.26-15,4.46-18.43,11.06a14.62,14.62,0,0,0,4.15,18.65A20.36,20.36,0,0,0,732,163.87c18.27-9.21,18.71-34.14,16.92-51.68A35.09,35.09,0,0,0,745.84,100a20.46,20.46,0,0,0-9.29-9.1c-6.53-3.34-15-6.22-22.39-4.26a10.16,10.16,0,0,0-6.87,5.48c-1.63,3.57-.71,7.75,1.41,10.91,2.42,3.61,6.4,5.78,10.42,7.17a36.37,36.37,0,0,0,14,2.32,15.38,15.38,0,0,0,10.82-5A22,22,0,0,0,748.5,97.1a87.15,87.15,0,0,0,1.15-13.59,56.83,56.83,0,0,0-1.21-15.94c-2-7.67-7.22-15.06-15.28-16.9a.15.15,0,0,0-.08.29Z"/><path class="cls-2" d="M810.09,48.91a28,28,0,0,1,9,22.18c-.45,8.7-5.37,17.89-14,20.88a12.2,12.2,0,0,1-12.54-2.32c-2.9-2.65-4.77-6.89-3.39-10.77,2.75-7.76,13.86-7.1,18.93-2.29,6.53,6.18,7.15,16.74,6.61,25.16-.56,8.77-4.32,18.53-14.05,20.15-4.41.73-9.86-1-11.29-5.72s2.64-9.12,6.85-10.38a15.54,15.54,0,0,1,11.32,1.33,17.17,17.17,0,0,1,8,9.34c3.15,8.09,2.22,18.21-.36,26.34-2.49,7.86-8.77,15.19-17.82,13.34-3.57-.73-6.77-3.13-7.53-6.83-.9-4.41,1.92-9,5.73-11,4.09-2.22,9.12-1.35,13,1,4.38,2.63,7.18,7.05,8.69,11.85,2.75,8.77,2.86,20.4-2.5,28.23-5.06,7.37-16.87,11.07-22.76,2.55-2.22-3.22-2.91-7.6-.61-11,2.13-3.13,6.06-4.2,9.68-3.83a14.4,14.4,0,0,1,9.46,4.81c3.2,3.77,4.44,8.82,4.79,13.64a67.78,67.78,0,0,1-.44,13c-.54,4.57-1.58,9.31-4.3,13.13a12.58,12.58,0,0,1-9.81,5.48c-3.53.17-7.42-1.16-9-4.55-1.88-4,.45-8.12,3.81-10.37a11.35,11.35,0,0,1,12.06-.57c7.68,4.26,10.65,14.31,11.08,22.51.48,9-2.59,18.61-10.93,23.11A17,17,0,0,1,795.31,249c-4.35-1.19-8.93-5.09-8.11-10,.68-4.08,4.68-7,8.52-7.77,4.41-.92,8.66,1.19,11.75,4.24a31.7,31.7,0,0,1,7.07,11.88,34.1,34.1,0,0,1,2.26,15c-.9,8.72-8.44,18.76-18.28,16.81a12.77,12.77,0,0,1-9.61-8.64,9.34,9.34,0,0,1,3.89-10.33,14.51,14.51,0,0,1,10.71-2,16.66,16.66,0,0,1,9.91,6.7c5.24,7,7.19,17,6.63,25.57-.59,9.23-5.35,18.17-14.69,20.92-4,1.16-8.52.94-12-1.44a12.07,12.07,0,0,1-4.85-8.58,11.67,11.67,0,0,1,2.36-9c3-3.56,8.15-3.54,12.21-1.9,8.13,3.27,13.71,11.65,15.71,19.92s.79,17.81-4.65,24.6c-2.68,3.35-6.55,5.92-11,6-4.15.05-8.83-2.11-10.17-6.32-1.19-3.73,1-8.53,4.7-9.92,5.07-1.88,9.43,3.71,12.08,7.22,5.63,7.44,9.53,17.44,6.81,26.77-2.33,8-9.75,15.41-18.55,14.93-4.37-.24-9.92-3.49-8.31-8.63,1.42-4.52,6.79-6.67,11.14-6.78,8.06-.21,16,5.6,16.82,13.89.75,7.75-4.39,16-12.19,17.66a16.86,16.86,0,0,1-19-10.65c-.06-.18-.35-.1-.29.08,2.74,8,12,13,20.2,10.64s13-11.46,11.28-19.5C816,362.1,807.17,356.89,799.1,358c-4,.56-8.77,3-9.77,7.31-1,4.1,2.56,7.15,6.17,8.14,9,2.48,17.67-5,20.77-12.9,3.92-10-.33-21.26-6.59-29.32-2.58-3.32-6.48-8.2-11.31-7.1-3.47.79-5.79,4.43-6,7.84-.2,3.93,2.68,7.09,6.2,8.41a12.94,12.94,0,0,0,12.09-1.77c7.73-5.5,10.26-16.32,9-25.28-1.34-9.38-7-19.07-16-23-3.78-1.67-8.53-2.07-11.93.66a11,11,0,0,0-3.66,8.78,13.08,13.08,0,0,0,3.92,9.38c2.9,2.67,7.13,3.49,10.94,2.95,10.12-1.45,16.16-10.49,17.25-20.07a44.45,44.45,0,0,0-1.41-16.19,30.64,30.64,0,0,0-6.39-12.77,15.83,15.83,0,0,0-10.9-5.53A14,14,0,0,0,791.27,261c-6.82,6.44-.88,16.81,7.17,18.41,9.77,1.94,17.45-7.75,18.58-16.46.77-5.93-.62-12-2.85-17.46-1.8-4.42-4.35-8.79-8.16-11.76-3.42-2.67-7.67-3.88-11.86-2.43-3.49,1.2-6.86,4.11-7.29,8-.49,4.29,2.94,7.85,6.63,9.41a16.33,16.33,0,0,0,12.61-.34c9.66-4.08,13.38-14.61,12.78-24.46-.53-8.74-4-19.84-13-23.32-6.74-2.63-17.92,3.4-14.78,11.61,2.77,7.21,13.37,6.3,18,1.62,3.51-3.58,5-8.56,5.75-13.39a64.39,64.39,0,0,0,.6-15.93c-.48-4.76-1.91-9.84-5.32-13.37A15,15,0,0,0,800,166.71c-3.42-.1-7,1.13-8.94,4-2.26,3.33-1.72,7.65.37,10.92,5.34,8.33,16.52,6.08,22.26-.56,3.4-3.94,4.94-9.16,5.37-14.26a41,41,0,0,0-1.85-16.64,20.54,20.54,0,0,0-9-11.48c-3.86-2.17-8.81-2.9-12.83-.71a11.38,11.38,0,0,0-6,9.8,8.9,8.9,0,0,0,5.85,8,13.87,13.87,0,0,0,10.87-.44c4.09-1.94,6.86-6,8.52-10.09a47.19,47.19,0,0,0,3-15c.28-5-.16-10.25-2.22-14.9a17,17,0,0,0-8.9-9.08,15.18,15.18,0,0,0-11.5-.39c-3.58,1.49-6.66,5.25-6.13,9.3.55,4.23,4.84,6.86,8.79,7.13A15,15,0,0,0,808.91,118c3.58-3.53,5.2-8.65,5.82-13.52a51.84,51.84,0,0,0-.34-15.43c-.83-4.72-2.64-9.52-6.24-12.83-5.06-4.65-15.56-5.37-18.94,1.71-1.67,3.5-.59,7.53,1.75,10.45A12.23,12.23,0,0,0,802.21,93c9.56-1.26,15.82-10.81,17-19.74A28.41,28.41,0,0,0,810.3,48.7c-.14-.13-.35.08-.21.21Z"/><path class="cls-2" d="M928.27,52.69c6.19,7.38,12.16,17.73,6.57,27.16-2.25,3.78-6.6,6.91-11.18,5.81-3.92-.94-7.53-4.86-7.49-9a5.08,5.08,0,0,1,.76-3c.81-.87,2.42-.27,3.49,0a19,19,0,0,1,11.26,27.88c-2.22,3.94-7.36,9.44-12.41,8.33-4.31-1-4.88-7.27-2.32-10.15,3.49-3.92,9.9-2.77,13.66,0a15.91,15.91,0,0,1,6.24,12.45,15.42,15.42,0,0,1-6.5,12.43c-3.15,2.27-11,5.21-12.76-.18-1.06-3.31,1.28-7.52,4.43-8.74,4.47-1.71,8.91,2.21,10.91,5.83a18.47,18.47,0,0,1,1.49,13.86c-1.23,4.3-4.33,8.25-8.91,9.12a11.37,11.37,0,0,1-6-.46c-1.69-.63-4-2-4.59-3.89-.71-2.28,2.65-4.17,4.36-4.71a10.12,10.12,0,0,1,5.92,0c4.82,1.47,7.19,6.55,7.58,11.25A18.45,18.45,0,0,1,929,159.91c-2.89,3.46-7.92,5.2-11.49,1.71-3-3-3.59-8.85,1.68-9.64,5-.75,9.64,3.59,11.71,7.73a15.1,15.1,0,0,1,0,13.86A15.93,15.93,0,0,1,920,181.68c-2.32.43-5.26.33-7.07-1.41-2.47-2.37-1.12-6.11,1.06-8.15,3.19-3,8.18-3.1,12-1.47,9.2,3.9,10.33,17.22,6,25.07-2.08,3.73-6,7.79-10.64,7.71s-7.15-4.05-6.48-8.27c.56-3.44,3-6.86,6.54-7.66,4.91-1.12,9.62,2.4,11.77,6.58,2.39,4.63,1.55,10-1.05,14.32-2.24,3.74-6,7.64-10.29,9-3.15,1-10,.65-8.45-4.48.72-2.34,3.59-3.46,5.8-3.65a10.36,10.36,0,0,1,5.56,1.22c6.2,3.21,9.26,11.47,7.3,18a11.05,11.05,0,0,1-7.81,7.71c-3.77.95-8.89-.12-9.7-4.58s4.31-8.15,8.39-8.28c4.82-.14,8.38,4.26,9.94,8.37,3.11,8.18,1.45,22.91-9.82,23.19-4.72.11-8.26-3.75-7.18-8.45a5.37,5.37,0,0,1,3.68-4.19c2.79-.76,5.84.8,7.94,2.54a15.51,15.51,0,0,1,5.54,12.29A14.89,14.89,0,0,1,925.94,269c-3.49,2.18-11,4.15-13.25-.74-1.65-3.59,1.41-8.16,4.81-9.38,4.83-1.73,9.68,2.28,12.22,6,2.94,4.29,4.75,10,3.87,15.26-.86,5-5,9.82-10.43,9.74a7.6,7.6,0,0,1-7.1-9.06c1.27-5.41,8-4.81,11.69-2.54s6,6.53,6.74,10.79a18.47,18.47,0,0,1-2.26,12.55c-2.48,4.1-7.59,7.85-12.61,6.37-4.75-1.41-6.11-9-.55-10.31,4.7-1.09,9.66,1.42,12.59,5a12.4,12.4,0,0,1,1.89,13.28,14.41,14.41,0,0,1-9.44,7.37c-4.3,1.06-9.55,0-11.67-4.31-1.51-3.08.34-5.78,3.66-6.12a14.67,14.67,0,0,1,6.39.92,16.06,16.06,0,0,1,9.82,9.51A12.49,12.49,0,0,1,929,336.25c-3.45,3.35-9.57,5-13.42,1.25a4.74,4.74,0,0,1-.9-6.14,7.58,7.58,0,0,1,5-2.74c9.43-1.7,17.51,9.4,15.38,18.1A13.52,13.52,0,0,1,926.2,356c-3.73,1.28-11.86.66-11.44-5,.38-5,7-6.94,11.06-5.76a14.29,14.29,0,0,1,8.84,8.22,12.45,12.45,0,0,1-.84,11.92,14.24,14.24,0,0,1-10,5.82,14,14,0,0,1-5.59-.37,12.21,12.21,0,0,1-2.67-1.1c-.39-.22-1-.47-1.16-.92s.3-.81.72-1.2a13.14,13.14,0,0,1,12.17-2.7c8.9,2.5,11.09,14.5,4.63,20.68-.14.13.08.34.22.21,5.06-4.84,5.21-13.9-.09-18.65s-13.92-3.79-18.3,1.49a.14.14,0,0,0,0,.21c6.34,5,16.83,2.91,20.81-4.15,4.33-7.68-1.29-18.33-9.72-20-3.8-.75-8.48,1-10,4.82-1.78,4.26,2.85,7,6.5,7.34a13.62,13.62,0,0,0,11.71-5.49,13.48,13.48,0,0,0,1.54-13.14,16.76,16.76,0,0,0-9.41-9.52c-3.32-1.21-8.21-.74-10.58,2.17-2.61,3.23.06,7.16,3.38,8.43,4.41,1.68,9.23-.45,12.13-3.89a12.61,12.61,0,0,0,2.25-12.86,16.46,16.46,0,0,0-9.79-9.09c-3.18-1.14-10.35-2.26-11,2.67-.54,4.16,4,7.16,7.54,7.69,8.56,1.27,17.48-6.55,15.68-15.39a14.81,14.81,0,0,0-8.46-10.28c-3.21-1.41-9.39-2.17-10.93,2-1.36,3.68,1.41,7.65,5.1,8.25,4.81.78,9.45-2.66,11.87-6.55,4.65-7.46,3.31-19.31-4.67-24-3.35-2-8.58-2.71-11.1,1-2.15,3.13-.64,7.65,2.17,9.83,3.54,2.75,8.49,1.31,11.48-1.54,4-3.85,4.48-9.77,3.11-14.92-1.33-5-4.22-10.2-8.89-12.74-3.69-2-7.93-1.64-10.63,1.73-2,2.45-2.9,6.49-.2,8.8,3.57,3,9.61,1.2,13-1.16a15.14,15.14,0,0,0,6.68-11.72,15.79,15.79,0,0,0-6-12.79c-3-2.31-8.06-4-10.71-.34a7.33,7.33,0,0,0,1.12,9.55c3.4,2.76,8.52,1.87,11.74-.69,4.22-3.35,5.35-9.29,5.07-14.39-.25-4.56-1.75-9.48-5.18-12.67a9,9,0,0,0-11.21-1.26c-3.18,1.94-5.31,5.92-3,9.37,2.07,3.14,6.44,3.48,9.75,2.45,8-2.46,9.56-12,6.54-18.85a14.56,14.56,0,0,0-7.54-7.74c-3.28-1.34-8.35-1.22-10.4,2.2-1.85,3.11.81,5.88,3.87,6.22,4.61.5,8.63-2.22,11.71-5.36,3.51-3.57,6.12-8.46,5.83-13.58a13.52,13.52,0,0,0-7.59-11.3A8.63,8.63,0,0,0,916.92,190c-2.12,2.53-3.17,6.37-1.9,9.51,1.51,3.71,5.84,4.92,9.39,3.61,4.26-1.57,7.56-5.72,9.06-9.9,3.18-8.88.47-21.81-10.15-23.74-4-.72-8.5.39-10.82,3.92-1.2,1.81-1.71,4.28-.47,6.2a6.45,6.45,0,0,0,5.06,2.52c4.78.37,9.58-2.39,12.47-6a15.14,15.14,0,0,0,2.81-13.22,15.57,15.57,0,0,0-8.71-10.54c-3.46-1.42-8.79-.71-8.88,3.94a8,8,0,0,0,5.75,7.45c4.41,1.1,8.44-2.63,10.38-6.19,4-7.32,3.1-21.26-7.16-22.69a10.16,10.16,0,0,0-5.78.85c-1.24.61-3.33,2.11-3.51,3.65-.16,1.36,1.62,3,2.63,3.76a10.53,10.53,0,0,0,5.3,1.9c10.43.88,14.74-11.34,12.35-19.82-1.21-4.33-4.29-8.89-9-9.91-3.57-.78-6.67,1.22-8.07,4.51-1.14,2.67-.92,6.23,2.08,7.51,4.55,1.94,10.4-1.46,13.36-4.78a15.36,15.36,0,0,0,3.69-13.22,15.6,15.6,0,0,0-9-11.42c-3.7-1.51-8.94-1.45-11.51,2.1-2,2.7-1.7,7.28,1.06,9.37,4,3,9.57-1.33,12.18-4.33a20.39,20.39,0,0,0,5-13.3c-.05-9.62-7.93-17.84-17.35-19-.05,0-.1,0-.13.08-4.13,6.07,3,14.2,9.53,13.29,8.54-1.19,12-11.36,10.25-18.75-1.3-5.64-4.73-10.52-8.4-14.88-.12-.15-.33.06-.21.21Z"/><path class="cls-2" d="M1004.24,54.6l3,3.07,1.63,1.65c.34.34,1.31,1,1.4,1.42.25,1.1-1.6,1.88-2.48,2.31a12.42,12.42,0,0,1-4.43,1.2.15.15,0,0,0-.11.25,19,19,0,0,0,5.54,4.46c1.08.57,3,.87,2.6,2.49a5,5,0,0,1-2.45,2.78c-3.09,1.89-8.13,1.86-9.85,5.63s3,4.59,5.26,5.75c2.77,1.44,3,4.84,1.51,7.32-1.58,2.67-4.77,3.92-7.51,5-.12,0-.16.26,0,.29,4.18.74,8.23,3.65,9.16,8s-1.89,8.87-6.2,9.6a.15.15,0,0,0,0,.29c3.52.82,8.65,2.41,9.87,6.3,1.46,4.7-3.66,7.29-7,9.08-2.8,1.49-5.45,3.64-6,7a3.94,3.94,0,0,0,.58,3c1.11,1.52,3,1.43,4.66,1.83,3.47.85,5.34,4.6,5.09,8-.33,4.31-3.87,5.71-7.35,7.18-2,.85-4.92,2-5.23,4.47s1.75,3.88,3.9,4.45c3.47.92,9,.79,9.88,5.29,1.2,6.55-6.33,8.93-11.26,9.8a.16.16,0,0,0-.11.19,11.86,11.86,0,0,0,5.46,6.72,11.44,11.44,0,0,0,1.75.79c.33.11.6.09.54.22a11.37,11.37,0,0,1-1.79.54l-6.56,1.95a.15.15,0,0,0,0,.29,24.54,24.54,0,0,1,12.66,11.94c.14.29.41.66.31,1s-.27.3-.81.28a15.16,15.16,0,0,0-2.13.06,17.94,17.94,0,0,0-3.7.72,18.34,18.34,0,0,0-6.74,3.84.15.15,0,0,0,0,.21,21.18,21.18,0,0,0,7.22,4.94,20,20,0,0,0,2.26.77c1.22.34,1.51.38.77,1.79a9.9,9.9,0,0,1-4,4,.15.15,0,0,0,.07.28,9.23,9.23,0,0,1,4.42,1.17c1,.55,3,2,3.29,3.18q.51.46-.12.75l-1.28.27-2.56.54-5.12,1.07a.15.15,0,0,0-.06.25,51.13,51.13,0,0,0,5.29,4c1,.68,2.11,1.31,3.21,1.91.37.2,1.08.32,1,.82,0,.2-1.37.75-1.51.82a38.44,38.44,0,0,1-14.8,4.08.15.15,0,0,0-.14.19c.57,3.78,5,4.78,8.12,5.37,2.42.46,4.89,1.14,6.63,3a3.55,3.55,0,0,1-1.15,5.93c-2.74,1.32-6,.85-8.74,2.11a2.59,2.59,0,0,0-1.68,2c-.18,1.61,2.13,2.24,3.31,2.83a29.11,29.11,0,0,0,4,1.62c.61.19,3.79.66,3.91,1.1.07.29-3.74,2.69-4.19,3l-4.7,3.4a.15.15,0,0,0,0,.23A25.84,25.84,0,0,0,1011.9,280a10.93,10.93,0,0,1,1.54.44c.6,0,.72.22.37.76-.16.19-.32.36-.5.54a12.71,12.71,0,0,1-2.86,2.19,12.9,12.9,0,0,1-7.45,1.57c-.14,0-.19.16-.11.25a20.56,20.56,0,0,0,6.16,4.84,20.28,20.28,0,0,0,3.43,1.37,13.36,13.36,0,0,1,2,.49c.5-.08.72.15.65.67a5.21,5.21,0,0,1-.28.52c-.78,2.11-3.61,3.58-5.62,4.09a8.57,8.57,0,0,1-7-1.17.18.18,0,0,0-.16,0c-3.85,2.06-.63,7.16,1.77,9,2,1.52,4.38,2.35,6.29,4a5.92,5.92,0,0,1,2.21,3.51c.15,1.06-.25,1.22-1.19.94a16.26,16.26,0,0,0-2.47-.54c-4.9-.67-10.4,1.58-11.37,6.9a5.88,5.88,0,0,0,6.72,6.95,5.94,5.94,0,0,0,2.22-1c.29-.17.22-.37.52-.26s.5,1,.64,1.34a28.78,28.78,0,0,1,1.28,3c.1.37.42.71,0,1.05a9.12,9.12,0,0,1-1.9.08l-3.17.13-6.35.27a.14.14,0,0,0-.14.11c-.86,2.24.44,4.09,2.33,5.27,2.64,1.64,5.43,1.61,8.41,1.76a16.79,16.79,0,0,1,4.82.81c1.32.48,3.86,1.93,3.32,3.62-.26.81-2,1.62-2.73,2a16.13,16.13,0,0,1-3.14,1.27,16.37,16.37,0,0,1-7,.45c-.11,0-.23.07-.19.19a24.24,24.24,0,0,0,4.66,8.43c.56.65,1.7,1.22.31,1.35-.93.08-1.89.06-2.83.09l-6.61.22a.16.16,0,0,0-.15.19,20.93,20.93,0,0,0,5.32,9.33,18.84,18.84,0,0,0,2.06,1.83c.47.36,1.7.87,1.61,1.41s-3.26,1.16-3.72,1.26a17.72,17.72,0,0,1-3.91.34.16.16,0,0,0-.13.23,41.1,41.1,0,0,0,8.18,9.08c.66.53,1.33,1,2,1.54,1.32.94.32,1.48-.75,2.25a12.21,12.21,0,0,1-6.63,2.29c-.2,0-.2.31,0,.3a12.53,12.53,0,0,0,8.71-4.08.15.15,0,0,0,0-.23,40.76,40.76,0,0,1-9.31-8.61c-.29-.37-1.76-2-1.56-2.34s2-.23,2.37-.29a17.88,17.88,0,0,0,5.42-1.73.15.15,0,0,0,0-.26,20.56,20.56,0,0,1-8.1-8.9c-.2-.43-1.31-2.44-1.13-3s2.61-.39,3.19-.41l7.24-.25a.15.15,0,0,0,.11-.25,24,24,0,0,1-4.31-5.71c-.27-.51-1.87-3.14-1.58-3.64s1.8-.12,2.32-.12a16.7,16.7,0,0,0,10.72-4.09.17.17,0,0,0,0-.15c-1-5.26-8-4.47-11.92-4.83-2.77-.26-7.8-1.94-7.45-5.51.12-1.22,1.36-1,2.34-1l3.17-.13,6.66-.28c.09,0,.19-.1.15-.19l-2.56-6.07c0-.09-.17-.16-.25-.06a5,5,0,0,1-6.22,1,5.54,5.54,0,0,1-2.7-6.68c1.8-6.47,9.3-7,14.62-5a.16.16,0,0,0,.19-.1c.61-3.2-2-5.35-4.43-6.9-1.68-1.07-3.61-1.82-5-3.25s-2.91-3.7-2.46-5.78c.25-1.11,1-1.95,2.09-1.49a12.79,12.79,0,0,0,2.21.85,9.45,9.45,0,0,0,4.36-.08,9.07,9.07,0,0,0,6.39-5.51.16.16,0,0,0-.11-.19,20.35,20.35,0,0,1-7.34-2.49,19.56,19.56,0,0,1-3.35-2.42c-.33-.29-1.17-.86-1.31-1.28s.24-.26.84-.27a13.14,13.14,0,0,0,10.19-5.24.14.14,0,0,0-.09-.22,25.59,25.59,0,0,1-11.5-5.8c-.59-.53-1.94-1.37-1.59-2.22.16-.39,1.26-.9,1.57-1.13l1.31-.94,6-4.34c.09-.06.11-.25,0-.27a27.76,27.76,0,0,1-9.17-3c-.9-.48-2.64-1.08-2.37-2.32a2.57,2.57,0,0,1,1.82-1.75c2.94-1.12,6.5-.57,9.18-2.41,3-2.07,1.61-5.42-.95-7.14-2-1.34-4.15-1.64-6.42-2.13s-5.12-1.22-6.35-3.38c-.54-.95-.59-1.3.5-1.48.58-.1,1.17-.13,1.75-.21a37.93,37.93,0,0,0,5.06-1.07,38.74,38.74,0,0,0,9-3.86.15.15,0,0,0,0-.26,49.52,49.52,0,0,1-8.64-5.53c-.76-.61-1.21-.79-.11-1.12.83-.24,1.72-.36,2.56-.54l5.76-1.2a.15.15,0,0,0,.09-.22,9.44,9.44,0,0,0-6.72-5.19l-.74-.11c-.5-.13-.46.2-.2-.14a22.66,22.66,0,0,1,1.81-1.47,10.39,10.39,0,0,0,2.37-4,.16.16,0,0,0-.11-.19,20.75,20.75,0,0,1-6.14-2.27,19.92,19.92,0,0,1-2.81-1.92c-.84-.68-2-1.29-1.13-2.28,1.44-1.54,4.1-2.58,6.06-3.15a17.84,17.84,0,0,1,6.82-.59.15.15,0,0,0,.15-.19,25,25,0,0,0-7.85-10.44c-.46-.36-5-3.41-5.18-3.14.21-.28,1.51-.47,1.86-.57l2.08-.62,4.48-1.34a.15.15,0,0,0,0-.28,11.35,11.35,0,0,1-7.45-5.92c-.28-.54-.82-1.11-.27-1.63.3-.29,1.65-.32,2.08-.43,3.39-.79,7-2.33,8.39-5.75,1.11-2.69.61-5.82-2-7.36s-5.66-1.33-8.39-2.28c-1.64-.57-3-1.72-2.9-3.6s1.87-3,3.45-3.79c2.55-1.24,5.9-1.94,7.73-4.28,3.26-4.19.84-11.26-4.4-12.27-2.28-.44-4.72-.95-4.58-3.82a8.49,8.49,0,0,1,3.05-5.54c2.72-2.37,6.63-3.08,9-6a5.58,5.58,0,0,0,0-7.07,10.78,10.78,0,0,0-3.62-2.76,19.13,19.13,0,0,0-2.08-.89c-.45-.17-2.74-.55-2.94-.89.36.62,3-1.31,3.41-1.7a8.87,8.87,0,0,0,2.45-4.12,9,9,0,0,0-2.58-8.79,12,12,0,0,0-4-2.6c-.25-.11-2.21-.68-2.21-.67s2.78-1.22,2.95-1.31c3-1.56,5.75-4.34,5.13-8a4.53,4.53,0,0,0-2.5-3.37c-1.84-1-4.84-1.19-5.36-3.63-.6-2.85,3.22-4.78,5.4-5.46a16.69,16.69,0,0,0,5.26-2.24,4.22,4.22,0,0,0,2-3.26,1.6,1.6,0,0,0-.21-.93c-.27-.38-1.45-.55-1.92-.77a18.52,18.52,0,0,1-5.11-3.61c-.24-.23-.8-.58-.65-1a15.77,15.77,0,0,1,1.58-.28,12.57,12.57,0,0,0,5.49-3,.14.14,0,0,0,0-.21l-6.53-6.61a.15.15,0,0,0-.21.21Z"/><path class="cls-2" d="M1083.17,56.22l-7.62.3c-.12,0-.21.17-.1.25l3.32,2.81c.26.22,1.29.89,1.42,1.2.34.78.14.26-.14.85a24.14,24.14,0,0,0-1.26,2.3,8.42,8.42,0,0,0,.77,7c.62,1,1.23,1.08.48,2.21a32.44,32.44,0,0,1-2.8,3.19.15.15,0,0,0,0,.21,8.69,8.69,0,0,1,2.11,2.29c.67,1.08,1.2,1.92.24,2.86a13.79,13.79,0,0,0-2.94,3.69.16.16,0,0,0,0,.21,10.68,10.68,0,0,1,4,3.49c.57,1.06,0,1.57-.7,2.44l-1.7,2.22a.15.15,0,0,0,0,.18c1.05,1.06,2.13,2.09,3.14,3.17.73.79.76.59,0,1.14a3.89,3.89,0,0,0-1.4,3.12,4.47,4.47,0,0,0,1.29,3c.29.41.44,0,.26.67-.11.42-1,1.08-1.32,1.39l-3.08,3.24a.15.15,0,0,0,0,.23,13.6,13.6,0,0,1,3.31,3.2c.3.42,2.23,3.34,1.87,3.68-.09.09-.74-.12-1.14-.09a3.27,3.27,0,0,0-1.95,1,4.13,4.13,0,0,0-.82,4.44c.26.83,1.45,2.3,1.25,3-.26.88-2.92,1.83-3.75,2.28a.14.14,0,0,0-.06.17,31.83,31.83,0,0,1,1.68,18.23c-.64,3.18-1.52,7.24.07,10.28a4.26,4.26,0,0,0,1.13,1.4c.24.18,1.47.71,1.49.77s-1.95,1.66-2.14,1.86a12.21,12.21,0,0,0-1.82,2.47,4.83,4.83,0,0,0-.63,4.05c.28.69,1,1,.78,1.67-.16.52-1.39,1.32-1.79,1.7l-1.79,1.7a.16.16,0,0,0,0,.22l4.41,3.68,2.21,1.84c.19.16.8.5.82.77s-.26.33-.56.52a7.25,7.25,0,0,0-3,4.61,7.84,7.84,0,0,0,.69,5.36,5.79,5.79,0,0,0,.75,1.08c.27.32.47.38.45.8s-.47.73-.7,1l-4,4.71a.14.14,0,0,0,0,.18l1.89,3.35,1,1.68a8.17,8.17,0,0,1,.94,1.67c.14,1.07-1.87,2.1-2.6,2.67l-2.95,2.29c-.08.06,0,.18,0,.23l5.15,3.34a19.6,19.6,0,0,1,2.71,1.75c.42.4.59.07.17.38a3.76,3.76,0,0,1-.62.21,6.08,6.08,0,0,0-3.31,3.93,6.65,6.65,0,0,0,.48,5.31,5.08,5.08,0,0,0,.73.93c.65.65.56.54-.11,1.31-1.37,1.56-3,3-4.5,4.42a.15.15,0,0,0,0,.21l3.88,4.69,1.83,2.22s.9.93.88,1.07-.12,0-.41.07a5.64,5.64,0,0,0-4.5,3.92c-.88,2.68.33,5.44,1.83,7.65.43.64.89,1.24,1.37,1.84.8,1,.25,1.3-.68,1.93l-5.33,3.6a.16.16,0,0,0,0,.21,26.82,26.82,0,0,0,3.7,5.82c.5.6,2.24,1.91,2,2.71-.1.33-1.18.86-1.51,1.1l-2,1.46a.15.15,0,0,0-.07.17,42.74,42.74,0,0,0,5.33,12.58c.09.14.87,1.26.85,1.28a4.87,4.87,0,0,1-.6-.05,4.94,4.94,0,0,0-2.08.32,4.5,4.5,0,0,0-2.52,2.54.16.16,0,0,0,.07.17l4.54,3.25,2.14,1.53c.19.14.85.45.84.72s-.21.2-.48.37c-2.37,1.45-4.36,2.69-6,5a.15.15,0,0,0,0,.2l3.64,2.43c.27.17,1.52.79,1.61,1.07a6.68,6.68,0,0,1-1,.15,8.42,8.42,0,0,0-5.06,3,.15.15,0,0,0,0,.21l3.29,3.19a8.9,8.9,0,0,1,1.65,1.59c.33.63.46.21-.11.68s-1.24.67-1.77,1.4a4.43,4.43,0,0,0-.8,2.1.17.17,0,0,0,.08.13l4.37,2.51a13.35,13.35,0,0,0,1.64.94c.51.22,1.17.19.44.16a2.86,2.86,0,0,0-2.56,2.42c-.38,2.13,1.37,3,2.34,4.49.41.16.49.4.25.75l-1.06.69-1.59,1-4.23,2.77a.15.15,0,0,0,0,.23l1.75,2.21c.35.44,1.71,1.69,1.74,2.21,0,.78-1.33,1.16-1.9,1.45l-2.9,1.48a.16.16,0,0,0,0,.24c1,1.08,2.16,2.14,3.08,3.3.79,1,.44,1-.13,2a6.79,6.79,0,0,0,.93,7.92c.17.18.63.44.75.65l.33.21a3.37,3.37,0,0,1-1.16.52,10.21,10.21,0,0,1-4.82.27c-.1,0-.23.06-.18.18a18.09,18.09,0,0,0,3.2,5.31c.26.3,1.24,1,1.31,1.34.15.66-.58,1-1,1.42l-3.23,3a.15.15,0,0,0,0,.21l3.34,3.9c.18.21,2.31,2.53,2.29,2.57a5.08,5.08,0,0,0-1.48.33,3.13,3.13,0,0,0-1,1.33,7.55,7.55,0,0,0-.18,4.9c.46,1.94,1,6-1.86,6.27a.15.15,0,0,0-.08.28l3.7,2.19c.55.33,1.29.51,1.09,1.17-.09.3-.48.65-.62.94a4.69,4.69,0,0,0,.15,4.34c.09.17.35,0,.26-.15a4.39,4.39,0,0,1,.88-5.38.15.15,0,0,0,0-.23l-3.69-2.2a8.52,8.52,0,0,0-1.32-.7,6.26,6.26,0,0,0,.67-.21,3.2,3.2,0,0,0,1.43-2.53,12.83,12.83,0,0,0-.48-4.57c-.37-1.81,0-6.21,2.82-5.39a.15.15,0,0,0,.14-.25l-4.8-5.6c-1.11-1.3-.25-1.74.8-2.71l2.76-2.54a.14.14,0,0,0,0-.21,18.41,18.41,0,0,1-2.84-3.14c-.33-.46-2.12-2.88-1.63-3.47.1-.12,2.58,0,2.82,0a11.21,11.21,0,0,0,3.19-1c.1,0,.09-.21,0-.26a6.22,6.22,0,0,1-1.29-9.72.14.14,0,0,0,0-.21l-1.76-1.89c-.43-.47-1.81-1.58-1.7-2.16s1.55-1,2.09-1.31l2.6-1.33a.15.15,0,0,0,0-.24l-2.32-2.95c-.86-1.08-1.71-1.64-.26-2.59l6.09-4c.07-.05.11-.17,0-.23a10,10,0,0,1-2.6-2.82c-.87-1.7,0-5,2.55-4,.16.06.26-.19.11-.28l-5.19-3c-1-.6-2.16-1.15-1.33-2.56a4.09,4.09,0,0,1,2.72-1.87.15.15,0,0,0,.06-.25l-2.82-2.73c-.58-.57-2.35-1.8-2.42-2.59s1.47-1.7,2.23-2.09a8.2,8.2,0,0,1,3.74-.88.15.15,0,0,0,.07-.28l-3.12-2.07c-.49-.34-1.1-.66-1.56-1-.81-.69-.86-.76-.05-1.71a14.28,14.28,0,0,1,5.9-4.08.15.15,0,0,0,0-.27l-6.4-4.59c-.6-.42-1.49-.72-1.19-1.69.15-.52,1-1.13,1.44-1.36a4.23,4.23,0,0,1,3.49-.34.15.15,0,0,0,.17-.22,43,43,0,0,1-4.78-8.92,16.89,16.89,0,0,1-1.44-4.43c-.09-1.51,2.63-2.78,3.76-3.61a.15.15,0,0,0,0-.23,26.43,26.43,0,0,1-5.39-6.87c-.55-1-.58-1.2.27-2a12.46,12.46,0,0,1,1.6-1.08l4.26-2.89a.15.15,0,0,0,0-.23c-1.9-2.3-4.12-5-4.3-8.09-.16-2.92,2.09-6.32,5.33-5.81a.15.15,0,0,0,.14-.25l-5.71-6.91c-.42-.5-1.06-1-.78-1.71.22-.58,1.36-1.33,1.8-1.77l3.15-3.1a.14.14,0,0,0,0-.23c-4-2.73-2.25-9.94,2.51-10.62.13,0,.13-.21,0-.27l-7.31-4.74-.81-.53c-.16-.43,0-.73.47-.87a9.09,9.09,0,0,1,1.47-1.15l3.44-2.67a.15.15,0,0,0,0-.18l-1.9-3.35c-.55-1-1.67-2.26-1.89-3.35s1.53-2.55,2.22-3.35l2.55-3a.16.16,0,0,0,0-.22c-3.79-3.16-2.81-9.91,1.73-11.86a.15.15,0,0,0,0-.23l-5.89-4.91c-.34-.29-1.36-.85-1.47-1.23-.21-.73.37-1,.85-1.47l2.69-2.55a.15.15,0,0,0,0-.23c-3.78-2.81,1.17-7.89,3.69-9.6a.16.16,0,0,0,0-.28c-6-1.18-3-10.58-2.47-14.47a31.38,31.38,0,0,0-.18-9.38,31.78,31.78,0,0,0-1.36-5.24c-.43-1.2-.09-1.52,1-2.09l2.61-1.44a.14.14,0,0,0,0-.2c-.91-1.48-1.94-3.13-1.89-4.94.07-2,2.15-4.09,4.14-2.85a.15.15,0,0,0,.22-.17,13.83,13.83,0,0,0-3.61-6.05,10.88,10.88,0,0,1-1-.89.55.55,0,0,1-.38-.84l.89-.93,3.52-3.71a.15.15,0,0,0,0-.23c-2.61-1.2-2.49-5.49.24-6.48a.15.15,0,0,0,.06-.25L1080.8,96c-.45-.46-1.57-1.23-1.8-1.82-.44-1.15,1.92-3.33,2.6-4.21a.16.16,0,0,0,0-.15,14,14,0,0,0-3.38-3.6c-1-.71-1.29-.92-.54-2a10.74,10.74,0,0,1,2.91-2.83.15.15,0,0,0,.07-.17,9.16,9.16,0,0,0-2.11-3.88c-.3-.33-.68-.49-.7-1s.5-.83.8-1.18l2.4-2.73a.15.15,0,0,0,0-.21,7.82,7.82,0,0,1-.17-11.06.15.15,0,0,0,0-.21l-2.61-2.2c-.38-.33-2.21-1.53-2.08-2s6.34-.24,7-.27c.19,0,.19-.31,0-.3Z"/><text class="cls-3" transform="translate(88.74 439.96)">1A</text><text class="cls-3" transform="translate(176.2 439.96)">1B</text><text class="cls-3" transform="translate(252.16 439.96)">1C</text><text class="cls-3" transform="translate(375.06 439.96)">2A</text><text class="cls-3" transform="translate(453.38 439.96)">2B</text><text class="cls-3" transform="translate(531.26 439.96)">2C</text><text class="cls-3" transform="translate(632.02 439.96)">3A</text><text class="cls-3" transform="translate(707.94 439.96)">3B</text><text class="cls-3" transform="translate(781.86 439.96)">3C</text><text class="cls-3" transform="translate(902.04 439.96)">4A</text><text class="cls-3" transform="translate(983.59 439.96)">4B</text><text class="cls-3" transform="translate(1066.28 439.96)">4C</text><text class="cls-4" transform="translate(153.84 540.63)">LISO</text><text class="cls-4" transform="translate(618.6 536.11)">RI<tspan class="cls-5" x="44.41" y="0">Z</tspan><tspan x="75.03" y="0">ADO</tspan></text><text class="cls-4" transform="translate(829.1 536.11)"><tspan class="cls-6">M</tspan><tspan x="32.96" y="0">UY RI</tspan><tspan class="cls-7" x="145.05" y="0">Z</tspan><tspan class="cls-8" x="175.67" y="0">ADO</tspan></text><text class="cls-4" transform="translate(342.17 536.11)">ON<tspan class="cls-9" x="57.51" y="0">D</tspan><tspan x="82.76" y="0">ULADO</tspan></text></g></g></svg>