<svg xmlns="http://www.w3.org/2000/svg" viewBox="0 0 48.99 48.99"><defs><style>.cls-1{fill:#e36d13;}</style></defs><g id="Capa_2" data-name="Capa 2"><g id="Capa_6" data-name="Capa 6"><path class="cls-1" d="M47.24,26.86H1.75a1.76,1.76,0,0,1-1.61-1A1.71,1.71,0,0,1,.48,24L23.23.51a1.82,1.82,0,0,1,2.53,0L48.5,24a1.69,1.69,0,0,1,.35,1.86A1.76,1.76,0,0,1,47.24,26.86ZM5.83,23.43H43.15L24.49,4.19Z"/><path class="cls-1" d="M39,49H10a1.73,1.73,0,0,1-1.75-1.72V25.14A1.72,1.72,0,0,1,10,23.43H39a1.72,1.72,0,0,1,1.75,1.71V47.27A1.73,1.73,0,0,1,39,49ZM11.79,45.55H37.2V26.86H11.79Z"/></g></g></svg>