<svg xmlns="http://www.w3.org/2000/svg" viewBox="0 0 10.38 10.37"><defs><style>.cls-1{fill:#e26d26;}.cls-2{fill:#fff;stroke:#fff;stroke-miterlimit:10;stroke-width:0.1px;}</style></defs><g id="Capa_2" data-name="Capa 2"><g id="Capa_4" data-name="Capa 4"><ellipse class="cls-1" cx="5.19" cy="5.18" rx="5.19" ry="5.18"/><path class="cls-2" d="M7.13,8.29H3.25A1.17,1.17,0,0,1,2.08,7.12V3.25A1.18,1.18,0,0,1,3.25,2.07H7.13A1.18,1.18,0,0,1,8.31,3.25V7.12A1.17,1.17,0,0,1,7.13,8.29Zm-3.88-6a1,1,0,0,0-1,1V7.12a1,1,0,0,0,1,1H7.13a1,1,0,0,0,1-1V3.25a1,1,0,0,0-1-1Z"/><path class="cls-2" d="M5.19,6.7A1.52,1.52,0,1,1,6.71,5.18,1.52,1.52,0,0,1,5.19,6.7Zm0-2.86A1.35,1.35,0,1,0,6.54,5.18,1.34,1.34,0,0,0,5.19,3.84Z"/><circle class="cls-2" cx="7.03" cy="3.45" r="0.4"/></g></g></svg>