<svg xmlns="http://www.w3.org/2000/svg" viewBox="0 0 322.43 101.4"><defs><style>.cls-1,.cls-3{fill:#491b0d;}.cls-2{fill:#e36d13;}.cls-3{font-size:13.86px;font-family:Lato-Regular, Lato;letter-spacing:-0.05em;}.cls-4{letter-spacing:0.05em;}.cls-5{letter-spacing:0.04em;}.cls-6{letter-spacing:0.03em;}.cls-7{letter-spacing:0.05em;}</style></defs><g id="Capa_2" data-name="Capa 2"><g id="Capa_6" data-name="Capa 6"><path class="cls-1" d="M101.88,52.69A43.59,43.59,0,0,1,89.13,83.56a44.06,44.06,0,0,1-6.31,5.25,43.77,43.77,0,0,1-24.69,7.62A43.68,43.68,0,0,1,14.39,52.69c0-1.21,0-2.41.15-3.59a43.75,43.75,0,0,1,69.4-31.73,44.38,44.38,0,0,1,8.44,8.1c.89,1.12,1.72,2.27,2.5,3.47a42.86,42.86,0,0,1,4.18,8.28A43.39,43.39,0,0,1,101.88,52.69Z"/><path class="cls-1" d="M58.13,96.75A44,44,0,0,1,14.07,52.69c0-1.19,0-2.41.15-3.62A44.06,44.06,0,0,1,84.13,17.12a43.47,43.47,0,0,1,5,4.29,42.14,42.14,0,0,1,3.46,3.87c.89,1.11,1.73,2.29,2.51,3.49a43.26,43.26,0,0,1,4.22,8.34A44.09,44.09,0,0,1,83,89.07a43.43,43.43,0,0,1-18.42,7.2A43,43,0,0,1,58.13,96.75Zm0-87.49A43.43,43.43,0,0,0,20,31.94a42.9,42.9,0,0,0-5.12,17.18c-.1,1.2-.15,2.4-.15,3.57a43.41,43.41,0,0,0,49.78,43,42.93,42.93,0,0,0,18.15-7.1,43.39,43.39,0,0,0,12-59.44c-.77-1.18-1.6-2.34-2.48-3.44a43.6,43.6,0,0,0-3.41-3.81,42.41,42.41,0,0,0-5-4.23A43.09,43.09,0,0,0,58.13,9.26Z"/><circle class="cls-1" cx="57.56" cy="13.59" r="13.27"/><path class="cls-1" d="M57.56,27.18A13.59,13.59,0,1,1,71.15,13.59,13.61,13.61,0,0,1,57.56,27.18Zm0-26.55a13,13,0,1,0,13,13A13,13,0,0,0,57.56.63Z"/><circle class="cls-1" cx="41.16" cy="15.48" r="8.51"/><path class="cls-1" d="M41.16,24.3A8.82,8.82,0,1,1,50,15.48,8.83,8.83,0,0,1,41.16,24.3Zm0-17a8.19,8.19,0,1,0,8.19,8.19A8.2,8.2,0,0,0,41.16,7.29Z"/><circle class="cls-1" cx="73.97" cy="15.48" r="8.51"/><path class="cls-1" d="M74,24.3a8.82,8.82,0,1,1,8.82-8.82A8.83,8.83,0,0,1,74,24.3Zm0-17a8.19,8.19,0,1,0,8.19,8.19A8.2,8.2,0,0,0,74,7.29Z"/><circle class="cls-1" cx="26.87" cy="24.97" r="11.39"/><path class="cls-1" d="M26.87,36.68A11.71,11.71,0,1,1,38.57,25,11.72,11.72,0,0,1,26.87,36.68Zm0-22.77A11.07,11.07,0,1,0,37.93,25,11.07,11.07,0,0,0,26.87,13.91Z"/><circle class="cls-1" cx="87.8" cy="24.97" r="11.39"/><path class="cls-1" d="M87.8,36.68A11.71,11.71,0,1,1,99.51,25,11.72,11.72,0,0,1,87.8,36.68Zm0-22.77A11.07,11.07,0,1,0,98.87,25,11.08,11.08,0,0,0,87.8,13.91Z"/><circle class="cls-1" cx="13.27" cy="37.95" r="8.51"/><path class="cls-1" d="M13.27,46.77A8.82,8.82,0,1,1,22.09,38,8.83,8.83,0,0,1,13.27,46.77Zm0-17A8.19,8.19,0,1,0,21.46,38,8.19,8.19,0,0,0,13.27,29.76Z"/><circle class="cls-1" cx="101.31" cy="37.95" r="8.51"/><path class="cls-1" d="M101.31,46.77A8.82,8.82,0,1,1,110.13,38,8.84,8.84,0,0,1,101.31,46.77Zm0-17A8.19,8.19,0,1,0,109.5,38,8.19,8.19,0,0,0,101.31,29.76Z"/><circle class="cls-1" cx="13.27" cy="57.19" r="12.95"/><path class="cls-1" d="M13.27,70.46A13.27,13.27,0,1,1,26.54,57.19,13.28,13.28,0,0,1,13.27,70.46Zm0-25.9A12.64,12.64,0,1,0,25.9,57.19,12.65,12.65,0,0,0,13.27,44.56Z"/><circle class="cls-1" cx="101.88" cy="57.19" r="12.95"/><path class="cls-1" d="M101.88,70.46a13.27,13.27,0,1,1,13.27-13.27A13.29,13.29,0,0,1,101.88,70.46Zm0-25.9a12.64,12.64,0,1,0,12.64,12.63A12.65,12.65,0,0,0,101.88,44.56Z"/><circle class="cls-1" cx="18.36" cy="72.09" r="8.51"/><path class="cls-1" d="M18.36,80.91a8.82,8.82,0,1,1,8.82-8.82A8.83,8.83,0,0,1,18.36,80.91Zm0-17a8.19,8.19,0,1,0,8.19,8.19A8.19,8.19,0,0,0,18.36,63.9Z"/><circle class="cls-1" cx="96.67" cy="72.09" r="8.51"/><path class="cls-1" d="M96.67,80.91a8.82,8.82,0,1,1,8.82-8.82A8.84,8.84,0,0,1,96.67,80.91Zm0-17a8.19,8.19,0,1,0,8.18,8.19A8.19,8.19,0,0,0,96.67,63.9Z"/><circle class="cls-1" cx="30.28" cy="83.19" r="11.39"/><path class="cls-1" d="M30.28,94.89A11.71,11.71,0,1,1,42,83.19,11.72,11.72,0,0,1,30.28,94.89Zm0-22.77A11.07,11.07,0,1,0,41.35,83.19,11.08,11.08,0,0,0,30.28,72.12Z"/><circle class="cls-1" cx="84.9" cy="83.19" r="11.39"/><path class="cls-1" d="M84.9,94.89a11.71,11.71,0,1,1,11.71-11.7A11.72,11.72,0,0,1,84.9,94.89Zm0-22.77A11.07,11.07,0,1,0,96,83.19,11.08,11.08,0,0,0,84.9,72.12Z"/><circle class="cls-1" cx="43.59" cy="92.58" r="8.51"/><path class="cls-1" d="M43.59,101.4a8.83,8.83,0,1,1,8.82-8.82A8.84,8.84,0,0,1,43.59,101.4Zm0-17a8.19,8.19,0,1,0,8.19,8.19A8.19,8.19,0,0,0,43.59,84.39Z"/><circle class="cls-1" cx="71.54" cy="92.58" r="8.51"/><path class="cls-1" d="M71.54,101.4a8.83,8.83,0,1,1,8.82-8.82A8.84,8.84,0,0,1,71.54,101.4Zm0-17a8.19,8.19,0,1,0,8.19,8.19A8.19,8.19,0,0,0,71.54,84.39Z"/><path class="cls-2" d="M75.6,79.53a17.48,17.48,0,0,1-35,0,2.71,2.71,0,0,1,0-.29h0c-.93-12,16.89-28.22,17.49-28.76C58.8,51.07,76.86,67.55,75.6,79.53Z"/><path class="cls-1" d="M59.45,47.23a4.8,4.8,0,0,0-1.71,5.63c.46,1.13,1.86,2.07,1.36,3.42A4,4,0,0,1,58,57.62a10.15,10.15,0,0,0-1.27,1.43c-1.26,1.76-1.36,4.73,1,5.68s4.36-1.67,3.78-3.79a2.08,2.08,0,0,0-2.82-1.35,1.86,1.86,0,0,0-.52,2.85c.64.79,1.76-.34,1.12-1.12-.22-.29.4-.4.6-.14s.07,1-.14,1.39a1.14,1.14,0,0,1-2,.22c-1.28-1.77.93-3.52,2-4.64a3.57,3.57,0,0,0,1.09-2.37,4.13,4.13,0,0,0-1.06-2.64,3.2,3.2,0,0,1,.52-4.54c.82-.59,0-2-.8-1.37Z"/><path class="cls-2" d="M41.87,73.51c-.42,1.53-.65,2.69-1.64,2.41a3.44,3.44,0,0,1-1.84-3.7c.43-1.53,1.48-2.25,2.47-2S42.3,72,41.87,73.51Z"/><path class="cls-2" d="M74.14,73.51c.43,1.53.66,2.69,1.65,2.41a3.44,3.44,0,0,0,1.83-3.7c-.42-1.53-1.47-2.25-2.46-2S73.71,72,74.14,73.51Z"/><path class="cls-2" d="M166.81,58a3.45,3.45,0,0,1-.75,2.15,3.42,3.42,0,0,1-4.3,1,3.49,3.49,0,0,1-1.65-1.76,2.94,2.94,0,0,1-.22-1.12,7,7,0,0,0-.11-1.17,11.9,11.9,0,0,0-.67-2.84,11.38,11.38,0,0,0-3-4.19,10.46,10.46,0,0,0-5.52-2.62,7.41,7.41,0,0,0-1.54-.17h-4.65c-.15,0-.23,0-.23.11v9.93c0,.38,0,.74,0,1.09a2.48,2.48,0,0,1-.3,1,3.56,3.56,0,0,1-1.62,1.7,3.29,3.29,0,0,1-2.34.3A3.35,3.35,0,0,1,138,60.14a3.43,3.43,0,0,1-.75-2.18V33.08q0-1.06,0-2.1c0-.68,0-1.38,0-2.09a3.2,3.2,0,0,1,.83-2.17,3.33,3.33,0,0,1,4.69-.48,3.4,3.4,0,0,1,1.4,2.37,4.7,4.7,0,0,1,.08,1.12q0,.56,0,1.11v9.35s.09,0,.28,0h3.18l.31,0a.53.53,0,0,0,.3,0l.51-.84.78-1.34.78-1.34,2.57-4.38c.85-1.47,1.71-2.93,2.56-4.38a9.94,9.94,0,0,1,.62-1,3.34,3.34,0,0,1,.78-.81,3.51,3.51,0,0,1,2.51-.62,3.33,3.33,0,0,1,2.28,1.29,3.28,3.28,0,0,1,.73,1.92,3.56,3.56,0,0,1-.5,2,4.33,4.33,0,0,0-.39.7,5.83,5.83,0,0,1-.39.69l-5.53,9.38a18,18,0,0,1,8.07,6.52A19.31,19.31,0,0,1,166,52.77,16.22,16.22,0,0,1,166.81,58Z"/><path class="cls-2" d="M177.24,23.7a3.3,3.3,0,0,1-2.45-1,3.38,3.38,0,0,1-1-2.46,3.42,3.42,0,0,1,1-2.47,3.3,3.3,0,0,1,2.45-1,3.52,3.52,0,0,1,3.52,3.49,3.33,3.33,0,0,1-1,2.46A3.38,3.38,0,0,1,177.24,23.7Zm0,4.19a3.35,3.35,0,0,1,2.48,1,3.39,3.39,0,0,1,1,2.48V57.79a3.55,3.55,0,0,1-3.52,3.52,3.28,3.28,0,0,1-2.45-1,3.41,3.41,0,0,1-1-2.48V31.4a3.44,3.44,0,0,1,1-2.48A3.27,3.27,0,0,1,177.24,27.89Z"/><path class="cls-2" d="M219.7,25.49A3.52,3.52,0,0,1,223.21,29V58l-.05.06v.55a.24.24,0,0,0-.06.17s0,.07,0,.08,0,0,0,.09A.15.15,0,0,1,223,59a.29.29,0,0,1-.06.22.16.16,0,0,1-.05.12.35.35,0,0,1-.11.22v.05a.47.47,0,0,0-.09.12.59.59,0,0,1-.08.11v0a.59.59,0,0,0-.08.11.35.35,0,0,1-.14.12v0l-.23.22-.11.12-.11.11a1.37,1.37,0,0,0-.28.22l-.14.09-.14.08h-.05a.35.35,0,0,1-.23.11s-.05,0-.05.06a.33.33,0,0,0-.14,0,.22.22,0,0,1-.14,0l-.11.06a.12.12,0,0,0-.09,0,.33.33,0,0,1-.14,0h-.11a.1.1,0,0,0-.08,0,.22.22,0,0,1-.14,0h-.84a.1.1,0,0,1-.08,0,.12.12,0,0,0-.09,0h-.16a.29.29,0,0,0-.17,0,.1.1,0,0,1-.08,0,.12.12,0,0,0-.09,0,.11.11,0,0,1-.08,0l-.08,0s-.06,0-.06,0,0,0-.06,0l-.22-.11L218,61a.31.31,0,0,1-.22-.11l-.05,0-.23-.12s0,0,0,0,0,0,0-.06a.26.26,0,0,1-.17-.11l-.11-.11-.06-.06L197.44,38.15V58A3.45,3.45,0,0,1,194,61.42a3.41,3.41,0,0,1-2.48-1,3.26,3.26,0,0,1-1-2.45V28.67l.06-.06a3.34,3.34,0,0,1,1.12-2.23,3.41,3.41,0,0,1,2.51-.89,3.2,3.2,0,0,1,2.39,1.17l19.7,22.09V29a3.44,3.44,0,0,1,1-2.48A3.29,3.29,0,0,1,219.7,25.49Z"/><path class="cls-2" d="M259.26,58a3.4,3.4,0,0,1-.76,2.15,3.3,3.3,0,0,1-1.92,1.25,3.37,3.37,0,0,1-2.37-.3,3.45,3.45,0,0,1-1.65-1.76,2.94,2.94,0,0,1-.22-1.12,7,7,0,0,0-.11-1.17,11.9,11.9,0,0,0-.67-2.84,11.38,11.38,0,0,0-3-4.19,10.46,10.46,0,0,0-5.52-2.62,7.41,7.41,0,0,0-1.54-.17h-4.66c-.14,0-.22,0-.22.11v9.93c0,.38,0,.74,0,1.09a2.48,2.48,0,0,1-.3,1,3.56,3.56,0,0,1-1.62,1.7,3.31,3.31,0,0,1-2.35.3,3.35,3.35,0,0,1-1.92-1.22,3.43,3.43,0,0,1-.75-2.18V33.08q0-1.06,0-2.1c0-.68,0-1.38,0-2.09a3.2,3.2,0,0,1,.83-2.17,3.33,3.33,0,0,1,4.69-.48,3.4,3.4,0,0,1,1.4,2.37,4.7,4.7,0,0,1,.08,1.12q0,.56,0,1.11v9.35s.09,0,.28,0h3.18l.31,0a.53.53,0,0,0,.3,0l.51-.84L242,38l.78-1.34c.85-1.45,1.71-2.91,2.56-4.38l2.57-4.38c.19-.33.39-.66.61-1a3.58,3.58,0,0,1,.79-.81,3.51,3.51,0,0,1,2.51-.62,3.33,3.33,0,0,1,2.28,1.29,3.28,3.28,0,0,1,.73,1.92,3.56,3.56,0,0,1-.5,2,4.33,4.33,0,0,0-.39.7,7.69,7.69,0,0,1-.39.69L248,41.56a17.89,17.89,0,0,1,4.52,2.67,17.71,17.71,0,0,1,3.54,3.85,19,19,0,0,1,2.32,4.69A16.22,16.22,0,0,1,259.26,58Z"/><path class="cls-2" d="M297.42,25.54A3.45,3.45,0,0,1,300.88,29v3.57a21.55,21.55,0,0,1-.39,3.46,16,16,0,0,1-1.06,3.3,19.16,19.16,0,0,1-3.8,5.69,22.91,22.91,0,0,1-2.67,2.2,16.31,16.31,0,0,1-3,1.65c-.59.22-1.18.42-1.76.61a14.08,14.08,0,0,1-1.81.45V58a3.24,3.24,0,0,1-1,2.42,3.4,3.4,0,0,1-2.46,1,3.33,3.33,0,0,1-2.4-1,3.24,3.24,0,0,1-1-2.42V49.93a14.08,14.08,0,0,1-1.81-.45c-.58-.19-1.17-.39-1.76-.61a15.92,15.92,0,0,1-3-1.65,23,23,0,0,1-2.68-2.2,19.13,19.13,0,0,1-3.85-5.69,19.66,19.66,0,0,1-1.4-6.76V29a3.45,3.45,0,0,1,3.46-3.46,3.25,3.25,0,0,1,2.43,1,3.4,3.4,0,0,1,1,2.45v3.35a10.69,10.69,0,0,0,.86,4.3,11.21,11.21,0,0,0,2.37,3.51,11,11,0,0,0,3.52,2.37,10.68,10.68,0,0,0,4.29.87,11.15,11.15,0,0,0,7.87-3.24,11.21,11.21,0,0,0,2.37-3.51,10.7,10.7,0,0,0,.87-4.3V29a3.39,3.39,0,0,1,1-2.45A3.25,3.25,0,0,1,297.42,25.54Z"/><path class="cls-1" d="M121.07,45.59c.15-1.3,2.51-1,3.3-.74,1.74.53,3.07,2.08,4.58,3a6.7,6.7,0,0,0,5.24,1.06,9.38,9.38,0,0,0,4.21-3c1.26-1.34,2.5-2.89,4.43-3.22,2.32-.39,4.68.79,6.63,1.92,3.71,2.17,7.78,5.21,12.34,3.77,3.41-1.08,5.84-4.89,9.48-5.22,3.17-.28,6,2.4,8.48,4,2.67,1.77,5.81,3.21,9,2.07s5.54-5.11,9.12-5.37c1.82-.13,3.54.77,5.09,1.6a30.11,30.11,0,0,0,5.25,2.51c3.64,1.15,7.07-.14,10.31-1.8,3.08-1.58,6.57-3.87,10.13-2.43,3.24,1.31,5.55,4.34,9,5.31,3.8,1.07,6.29-1.42,8.83-3.8,1.22-1.15,2.58-2,4.31-1.65a12.12,12.12,0,0,1,4.07,2.09c2.6,1.76,5.42,3.92,8.75,3.51,4.23-.53,6.61-4.94,11-4.92S281.23,48.44,285,50a5.84,5.84,0,0,0,5.18-.31c1.84-1,3.09-2.82,5.11-3.58a9,9,0,0,1,5.68-.2c2.07.59,3.33,1.93,4.82,3.39,3.26,3.2,7.85,3.1,11.5.51a26.86,26.86,0,0,0,4.79-4.68c1.16-1.36-.8-3.35-2-2-2.56,3-7.26,8.18-11.54,4.9-1.66-1.27-2.8-3-4.69-4a11.78,11.78,0,0,0-5.67-1.33,11.42,11.42,0,0,0-5.42,1.46c-1.71,1-3.17,3.25-5.2,3.47-1.86.2-3.56-1.47-4.87-2.55a15.17,15.17,0,0,0-4.92-3,10.49,10.49,0,0,0-6.25,0c-2,.63-3.54,1.94-5.24,3.12s-3.15,1.73-5.05,1.12A16.84,16.84,0,0,1,257,43.86c-2.56-1.75-5.46-3.69-8.71-2.83A10.18,10.18,0,0,0,244,43.89c-1.23,1.21-2.52,2.69-4.37,2.74-1.66,0-3.18-1.05-4.47-2a37.15,37.15,0,0,0-4.41-2.94c-3.42-1.74-6.8-1.17-10.17.39-3.21,1.5-6.71,4.21-10.47,3.55s-6.6-3.7-10.37-4.37c-4.07-.72-6.63,1.91-9.63,4.13a6,6,0,0,1-4.64,1.46,11.54,11.54,0,0,1-4.15-2c-2.7-1.77-5.32-4-8.64-4.44-4-.51-6.64,2.36-9.75,4.33-4.43,2.81-8.4-.46-12.26-2.68s-8.25-3.4-11.91-.44c-1.4,1.14-2.43,2.68-3.86,3.78-1.64,1.27-3.25.85-4.87-.24s-2.92-2.45-4.75-3a6.81,6.81,0,0,0-4.48,0,3.82,3.82,0,0,0-2.51,3.35c-.2,1.78,2.59,1.77,2.79,0Z"/><path class="cls-2" d="M236.78,45.69a6.29,6.29,0,0,1,.16-5.47c-.19,0-.28,0-.28,0V37.74a5.11,5.11,0,0,1-4.13,1.86,5.44,5.44,0,0,1-2.84-.73V58a3.43,3.43,0,0,0,.75,2.18,3.35,3.35,0,0,0,1.92,1.22,3.31,3.31,0,0,0,2.35-.3,3.56,3.56,0,0,0,1.62-1.7,2.48,2.48,0,0,0,.3-1c0-.35,0-.71,0-1.09V47.3s0-.07.1-.09A6,6,0,0,1,236.78,45.69Z"/><path class="cls-2" d="M266.47,36.93a5.06,5.06,0,0,1,5-3.45l.45,0c0-.37-.05-.76-.05-1.15V29a3.4,3.4,0,0,0-1-2.45,3.25,3.25,0,0,0-2.43-1A3.45,3.45,0,0,0,265,29v3.57a19.9,19.9,0,0,0,.83,5A4.5,4.5,0,0,1,266.47,36.93Z"/><path class="cls-2" d="M299.87,26.55a3.33,3.33,0,0,0-2.45-1,3.25,3.25,0,0,0-2.43,1A3.39,3.39,0,0,0,294,29v3.35a10.7,10.7,0,0,1-.87,4.3,11.21,11.21,0,0,1-2.37,3.51,11.12,11.12,0,0,1-11.48,2.63,5.11,5.11,0,0,1-4,1.73,6.49,6.49,0,0,1-.78-.06,4.85,4.85,0,0,1-2.51,2c.31.24.62.49.94.71a15.92,15.92,0,0,0,3,1.65c.59.22,1.18.42,1.76.61a14.08,14.08,0,0,0,1.81.45V58a3.24,3.24,0,0,0,1,2.42,3.33,3.33,0,0,0,2.4,1,3.4,3.4,0,0,0,2.46-1,3.24,3.24,0,0,0,1-2.42v-2.3a6.06,6.06,0,0,1-.11-5.63,5.44,5.44,0,0,1,1.33-2.27,7.82,7.82,0,0,1,3-3.12,6.93,6.93,0,0,1,1.66-.69,5.06,5.06,0,0,1,4.67-2.67,6.25,6.25,0,0,1,1.4.16,19.41,19.41,0,0,0,1.13-2.17,16,16,0,0,0,1.06-3.3,21.55,21.55,0,0,0,.39-3.46V29A3.34,3.34,0,0,0,299.87,26.55Z"/><path class="cls-2" d="M177.24,23.7a3.3,3.3,0,0,1-2.45-1,3.38,3.38,0,0,1-1-2.46,3.42,3.42,0,0,1,1-2.47,3.3,3.3,0,0,1,2.45-1,3.52,3.52,0,0,1,3.52,3.49,3.33,3.33,0,0,1-1,2.46A3.38,3.38,0,0,1,177.24,23.7Zm0,4.19a3.35,3.35,0,0,1,2.48,1,3.39,3.39,0,0,1,1,2.48V57.79a3.55,3.55,0,0,1-3.52,3.52,3.28,3.28,0,0,1-2.45-1,3.41,3.41,0,0,1-1-2.48V31.4a3.44,3.44,0,0,1,1-2.48A3.27,3.27,0,0,1,177.24,27.89Z"/><path class="cls-2" d="M221.1,38.52a5.75,5.75,0,0,1,2.11.38V29a3.52,3.52,0,0,0-3.51-3.51,3.29,3.29,0,0,0-2.46,1,3.44,3.44,0,0,0-1,2.48V41.57A5.06,5.06,0,0,1,221.1,38.52Z"/><path class="cls-2" d="M217,49.69a5.8,5.8,0,0,1-.78-1l-19.63-22a3.2,3.2,0,0,0-2.39-1.17,3.41,3.41,0,0,0-2.51.89,3.34,3.34,0,0,0-1.12,2.23l-.06.06V40.78a5.11,5.11,0,0,1,4.35-2.14,5.52,5.52,0,0,1,2.63.62V38.15L217.13,60.3l.17.17a.26.26,0,0,0,.17.11s0,.06,0,.06,0,0,0,0l.23.12.05,0A.31.31,0,0,0,218,61l.06.06.22.11s.06,0,.06,0,0,0,.06,0l.08,0a.11.11,0,0,0,.08,0,.12.12,0,0,1,.09,0,.1.1,0,0,0,.08,0,.29.29,0,0,1,.17,0h.16a.12.12,0,0,1,.09,0,.1.1,0,0,0,.08,0h.84a.22.22,0,0,0,.14,0,.1.1,0,0,1,.08,0h.11a.33.33,0,0,0,.14,0,.12.12,0,0,1,.09,0l.11-.06a.22.22,0,0,0,.14,0,.33.33,0,0,1,.14,0s0-.06.05-.06a.35.35,0,0,0,.23-.11h.05l.14-.08.14-.09a1.37,1.37,0,0,1,.28-.22l.11-.11.11-.12.23-.22v0a.35.35,0,0,0,.14-.12.59.59,0,0,1,.08-.11v0a.59.59,0,0,0,.08-.11.47.47,0,0,1,.09-.12v-.05a.35.35,0,0,0,.11-.22.16.16,0,0,0,.05-.12A.29.29,0,0,0,223,59a.15.15,0,0,0,.06-.11s0-.07,0-.09,0,0,0-.08a.24.24,0,0,1,.06-.17V58l.05-.06v-2.7a6.15,6.15,0,0,1-.88.07A5.27,5.27,0,0,1,217,49.69Z"/><path class="cls-2" d="M161.67,26.83a3.33,3.33,0,0,0-2.28-1.29,3.51,3.51,0,0,0-2.51.62,3.34,3.34,0,0,0-.78.81,9.94,9.94,0,0,0-.62,1c-.85,1.45-1.71,2.91-2.56,4.38L151,35.54a5.09,5.09,0,0,1,4.63,4,5.12,5.12,0,0,1,1.06.13l4.4-7.47a5.83,5.83,0,0,0,.39-.69,4.33,4.33,0,0,1,.39-.7,3.56,3.56,0,0,0,.5-2A3.28,3.28,0,0,0,161.67,26.83Z"/><path class="cls-2" d="M144.06,41.2a6.89,6.89,0,0,1,.15-1.29V30.84q0-.56,0-1.11a4.7,4.7,0,0,0-.08-1.12,3.4,3.4,0,0,0-1.4-2.37,3.33,3.33,0,0,0-4.69.48,3.2,3.2,0,0,0-.83,2.17c0,.71-.05,1.41,0,2.09s0,1.39,0,2.1V58a3.43,3.43,0,0,0,.75,2.18,3.35,3.35,0,0,0,1.93,1.22,3.29,3.29,0,0,0,2.34-.3,3.56,3.56,0,0,0,1.62-1.7,2.48,2.48,0,0,0,.3-1c0-.35,0-.71,0-1.09V47.3c0-.07.08-.11.23-.11h2.45a2.29,2.29,0,0,1-.21-.23A5.67,5.67,0,0,1,144.06,41.2Z"/><path class="cls-2" d="M166,52.77a19.31,19.31,0,0,0-2.31-4.69.39.39,0,0,1-.08-.1,5.1,5.1,0,0,1-5.13,3.79,6,6,0,0,1-.75-.05,11.51,11.51,0,0,1,1.41,2.45,11.9,11.9,0,0,1,.67,2.84,7,7,0,0,1,.11,1.17,2.94,2.94,0,0,0,.22,1.12,3.49,3.49,0,0,0,1.65,1.76,3.42,3.42,0,0,0,4.3-1,3.45,3.45,0,0,0,.75-2.15A16.22,16.22,0,0,0,166,52.77Z"/><path class="cls-2" d="M286.37,50.35a10.71,10.71,0,0,1,1.35-2.76l-2.12-.77-1,1.77S285.21,51.41,286.37,50.35Z"/><text class="cls-3" transform="translate(161.84 81.21)">T<tspan class="cls-4" x="7.46" y="0">us ri</tspan><tspan class="cls-5" x="36.71" y="0">z</tspan><tspan class="cls-4" x="43.56" y="0">os en รณ</tspan><tspan class="cls-6" x="92.48" y="0">r</tspan><tspan class="cls-7" x="97.98" y="0">den</tspan></text></g></g></svg>