<svg xmlns="http://www.w3.org/2000/svg" viewBox="0 0 34.81 36.5"><defs><style>.cls-1{fill:#fff;}</style></defs><g id="Capa_2" data-name="Capa 2"><g id="Capa_4" data-name="Capa 4"><path class="cls-1" d="M31.71,21.07a2.61,2.61,0,0,1,.09.69,2.57,2.57,0,0,1-2.57,2.57H29a3.5,3.5,0,0,1,.1.8,3.45,3.45,0,0,1-3.45,3.43,3.49,3.49,0,0,1-1.48-.33,2.58,2.58,0,0,1-4.91.79,5.29,5.29,0,0,0,3.58-5,4,4,0,0,0-.05-1.08h.1a1,1,0,0,0,.56-1.12c-.13-.46-.45-.68-.75-.59a.46.46,0,0,0-.31.35c-1.22-2.95-4.41-5.94-4.8-6.29l0,0c-.15.13-3.66,3.33-4.89,6.46a.55.55,0,0,0-.34-.48c-.3-.09-.62.13-.75.59a1,1,0,0,0,.56,1.12.22.22,0,0,0,.18,0,4.32,4.32,0,0,0-.06,1h0V24a5.28,5.28,0,0,0,3.57,5l-.31,0a2.58,2.58,0,0,1-4.93-.73,3.39,3.39,0,0,1-1.46.32A3.41,3.41,0,0,1,5.8,24.32H5.54A2.57,2.57,0,0,1,3,21.76a2.32,2.32,0,0,1,.1-.7,3.91,3.91,0,0,1-.46-7.45A2.57,2.57,0,0,1,4,8.88a2.45,2.45,0,0,1,1,.23A3.45,3.45,0,0,1,9.87,4.57,2.56,2.56,0,0,1,12.44,2.1a2.51,2.51,0,0,1,1.3.35,4,4,0,0,1,7.32,0,2.51,2.51,0,0,1,1.3-.35,2.57,2.57,0,0,1,2.57,2.4,3.39,3.39,0,0,1,1.62-.41,3.45,3.45,0,0,1,3.07,5,2.61,2.61,0,0,1,1-.21,2.57,2.57,0,0,1,1.46,4.69,3.91,3.91,0,0,1-.38,7.5Z"/><path d="M21.63,30.61A2.68,2.68,0,0,1,19.2,29l0-.08.08,0A5.2,5.2,0,0,0,22.77,24a3.81,3.81,0,0,0,0-1.06l0-.11h.18a.78.78,0,0,0,.38-.37.86.86,0,0,0,.12-.64c-.11-.4-.38-.61-.64-.54a.4.4,0,0,0-.26.3l-.07.23-.09-.22c-1.19-2.89-4.3-5.83-4.75-6.25-.47.43-3.66,3.43-4.81,6.37l-.12.3,0-.32c0-.22-.14-.37-.29-.41s-.53.14-.64.53a.88.88,0,0,0,.12.65.78.78,0,0,0,.38.37.14.14,0,0,0,.12,0l.16-.08,0,.17a4.22,4.22,0,0,0-.05,1V24a5.19,5.19,0,0,0,3.51,4.91l.78.27-.82-.1-.25,0a2.66,2.66,0,0,1-5.05-.71,3.46,3.46,0,0,1-1.39.29,3.53,3.53,0,0,1-3.53-3.52,3.35,3.35,0,0,1,.07-.71H5.54a2.67,2.67,0,0,1-2.66-2.66A2.8,2.8,0,0,1,3,21.12a4,4,0,0,1-.53-7.53A2.65,2.65,0,0,1,4,8.8,2.58,2.58,0,0,1,4.88,9a3.61,3.61,0,0,1-.29-1.42A3.53,3.53,0,0,1,8.12,4a3.48,3.48,0,0,1,1.67.42A2.65,2.65,0,0,1,12.44,2a2.62,2.62,0,0,1,1.26.32,4.1,4.1,0,0,1,7.4,0,2.65,2.65,0,0,1,3.9,2A3.59,3.59,0,0,1,26.55,4a3.52,3.52,0,0,1,3.24,4.92,2.66,2.66,0,0,1,2.48,4.61,4,4,0,0,1-.46,7.59,2.72,2.72,0,0,1,.08.63,2.66,2.66,0,0,1-2.66,2.66h-.1a3.2,3.2,0,0,1,.07.7,3.54,3.54,0,0,1-4.94,3.23A2.66,2.66,0,0,1,21.63,30.61ZM19.4,29.06a2.49,2.49,0,0,0,4.7-.85v-.12l.11.05a3.31,3.31,0,0,0,1.45.33A3.37,3.37,0,0,0,29,25.12a3.33,3.33,0,0,0-.09-.78l0-.11h.32a2.5,2.5,0,0,0,2.49-2.49,2.07,2.07,0,0,0-.1-.66l0-.09.09,0a3.82,3.82,0,0,0,.37-7.34l-.16-.06L32,13.5A2.48,2.48,0,0,0,30.63,9a2.53,2.53,0,0,0-1,.2l-.22.09.11-.21a3.31,3.31,0,0,0,.37-1.52,3.37,3.37,0,0,0-4.94-3l-.12.06V4.5a2.5,2.5,0,0,0-2.49-2.32,2.47,2.47,0,0,0-1.25.34l-.09,0,0-.09a3.93,3.93,0,0,0-7.16,0l0,.09-.08,0a2.53,2.53,0,0,0-1.26-.34A2.48,2.48,0,0,0,10,4.57v.15l-.13-.08A3.36,3.36,0,0,0,4.76,7.53a3.3,3.3,0,0,0,.37,1.54l.11.22L5,9.19A2.37,2.37,0,0,0,4,9a2.49,2.49,0,0,0-1.35,4.57l.15.09-.16.06A3.82,3.82,0,0,0,3.09,21l.08,0,0,.09a2.46,2.46,0,0,0-.09.67,2.49,2.49,0,0,0,2.48,2.49l.25,0h.12l0,.12a3.33,3.33,0,0,0-.09.78,3.36,3.36,0,0,0,4.79,3l.11,0v.12a2.49,2.49,0,0,0,4.75.72A5.36,5.36,0,0,1,12.2,24v-.09a4,4,0,0,1,0-.9l-.11,0a.92.92,0,0,1-.48-.45,1,1,0,0,1-.13-.77c.13-.49.49-.76.85-.66a.56.56,0,0,1,.33.31c1.33-3.12,4.78-6.23,4.82-6.26l.06-.05.09.08a22.23,22.23,0,0,1,4.74,6.15.55.55,0,0,1,.29-.23c.37-.1.72.17.85.66a1,1,0,0,1-.13.77.89.89,0,0,1-.48.45h0a4.32,4.32,0,0,1,0,1A5.38,5.38,0,0,1,19.4,29.06Z"/><path class="cls-1" d="M10.46,36.05a.47.47,0,0,1-.09.28.45.45,0,0,1-.25.16.42.42,0,0,1-.31,0,.4.4,0,0,1-.21-.23.32.32,0,0,1,0-.14.77.77,0,0,0,0-.15,1.53,1.53,0,0,0-.08-.37A1.45,1.45,0,0,0,9.08,35a1.35,1.35,0,0,0-.71-.34.71.71,0,0,0-.2,0H7.56s0,0,0,0V36s0,.09,0,.14a.22.22,0,0,1,0,.13.41.41,0,0,1-.21.22.39.39,0,0,1-.3,0,.38.38,0,0,1-.25-.16.4.4,0,0,1-.1-.28V32.29A.45.45,0,0,1,7,31.86a.45.45,0,0,1,.35.09.47.47,0,0,1,.18.3.76.76,0,0,1,0,.15v1.35h.52l.07-.1.1-.18.1-.17.33-.57L9,32.17A.57.57,0,0,1,9.08,32a.24.24,0,0,1,.1-.1.4.4,0,0,1,.32-.08.45.45,0,0,1,.3.16.38.38,0,0,1,.09.25.4.4,0,0,1-.06.26.41.41,0,0,0-.05.09.36.36,0,0,1,0,.09L9,33.93a2.32,2.32,0,0,1,.59.34,3.1,3.1,0,0,1,.46.5,3.14,3.14,0,0,1,.3.61A2.18,2.18,0,0,1,10.46,36.05Z"/><path class="cls-1" d="M11.82,31.62a.43.43,0,0,1-.32-.14.4.4,0,0,1-.13-.31.42.42,0,0,1,.13-.32.43.43,0,0,1,.32-.14.45.45,0,0,1,.32.14.42.42,0,0,1,.13.32.4.4,0,0,1-.13.31A.45.45,0,0,1,11.82,31.62Zm0,.54a.44.44,0,0,1,.45.45V36a.42.42,0,0,1-.13.32.44.44,0,0,1-.32.13.44.44,0,0,1-.45-.45V32.61a.44.44,0,0,1,.13-.32A.42.42,0,0,1,11.82,32.16Z"/><path class="cls-1" d="M17.32,31.85a.42.42,0,0,1,.32.13.45.45,0,0,1,.14.32v3.75h0v.09h0v0a0,0,0,0,1,0,0h0a0,0,0,0,1,0,0h0v0h0v0h0l0,0h0v0l0,0H17v0h0l-2.55-2.86v2.56a.43.43,0,0,1-.14.32.4.4,0,0,1-.31.13.44.44,0,0,1-.33-.13.46.46,0,0,1-.13-.32V32.3h0v0h0a.49.49,0,0,1,.14-.29.43.43,0,0,1,.33-.11.39.39,0,0,1,.31.15l2.55,2.86V32.3A.48.48,0,0,1,17,32,.44.44,0,0,1,17.32,31.85Z"/><path class="cls-1" d="M22.45,36.05a.46.46,0,0,1-.35.44.43.43,0,0,1-.31,0,.43.43,0,0,1-.21-.23.32.32,0,0,1,0-.14.76.76,0,0,0,0-.15,2.22,2.22,0,0,0-.09-.37,1.43,1.43,0,0,0-.38-.54,1.38,1.38,0,0,0-.72-.34.68.68,0,0,0-.2,0h-.6s0,0,0,0V36.1a.65.65,0,0,1,0,.13.5.5,0,0,1-.21.22.42.42,0,0,1-.31,0,.4.4,0,0,1-.25-.16.45.45,0,0,1-.09-.28V32.83c0-.09,0-.18,0-.27a2.44,2.44,0,0,1,0-.27.4.4,0,0,1,.1-.28.44.44,0,0,1,.61-.06.4.4,0,0,1,.18.3.38.38,0,0,1,0,.15v1.35h.53l.06-.1.1-.18.11-.17.33-.57.33-.56a.57.57,0,0,1,.08-.13.32.32,0,0,1,.1-.1.43.43,0,0,1,.33-.08.41.41,0,0,1,.29.16.46.46,0,0,1,.1.25.48.48,0,0,1-.07.26l0,.09a.19.19,0,0,1-.05.09L21,33.93a2.26,2.26,0,0,1,.58.34,2.7,2.7,0,0,1,.46.5,2.31,2.31,0,0,1,.3.61A2.19,2.19,0,0,1,22.45,36.05Z"/><path class="cls-1" d="M27.4,31.86a.44.44,0,0,1,.44.44v.47a2.48,2.48,0,0,1-.18.87,2.54,2.54,0,0,1-.5.74,3,3,0,0,1-.34.28,1.47,1.47,0,0,1-.39.21L26.2,35A.94.94,0,0,1,26,35v1.05a.44.44,0,0,1-.44.44.42.42,0,0,1-.32-.13.44.44,0,0,1-.13-.31V35a.86.86,0,0,1-.23-.06l-.23-.08a1.47,1.47,0,0,1-.39-.21,3.07,3.07,0,0,1-.35-.28,2.84,2.84,0,0,1-.5-.74,2.6,2.6,0,0,1-.18-.87V32.3a.44.44,0,0,1,.45-.44A.42.42,0,0,1,24,32a.43.43,0,0,1,.12.31v.44a1.3,1.3,0,0,0,.12.55,1.46,1.46,0,0,0,1.32.88,1.38,1.38,0,0,0,.56-.12,1.41,1.41,0,0,0,.46-.3,1.31,1.31,0,0,0,.3-.46,1.29,1.29,0,0,0,.11-.55V32.3a.44.44,0,0,1,.13-.31A.42.42,0,0,1,27.4,31.86Z"/><path d="M4.54,34.45c0-.17.32-.13.42-.1a2.62,2.62,0,0,1,.6.4.86.86,0,0,0,.68.13,1.14,1.14,0,0,0,.54-.38,1.21,1.21,0,0,1,.58-.42,1.42,1.42,0,0,1,.86.25c.48.28,1,.68,1.6.49.44-.14.75-.63,1.22-.67s.78.31,1.1.52a1.32,1.32,0,0,0,1.17.26c.43-.15.72-.66,1.19-.69a1.23,1.23,0,0,1,.66.21,3.51,3.51,0,0,0,.68.32,1.77,1.77,0,0,0,1.34-.23c.39-.21.85-.5,1.31-.32s.72.57,1.16.69.82-.18,1.14-.49a.61.61,0,0,1,.56-.21,1.48,1.48,0,0,1,.53.27,1.79,1.79,0,0,0,1.14.45c.54-.07.85-.64,1.43-.64s.85.53,1.33.73a.77.77,0,0,0,.68-.05,5.17,5.17,0,0,1,.66-.46,1.24,1.24,0,0,1,.74,0,1.6,1.6,0,0,1,.62.44A1.13,1.13,0,0,0,30,35a3.58,3.58,0,0,0,.62-.61c.15-.17-.1-.43-.25-.25-.34.39-.94,1.06-1.5.63a4.34,4.34,0,0,0-.61-.51,1.43,1.43,0,0,0-.73-.17,1.48,1.48,0,0,0-.71.19c-.22.12-.41.42-.67.45s-.46-.19-.63-.33a2,2,0,0,0-.64-.4A1.4,1.4,0,0,0,24,34a2.37,2.37,0,0,0-.68.41.7.7,0,0,1-.65.14,2.57,2.57,0,0,1-.56-.31A1.39,1.39,0,0,0,21,33.86a1.25,1.25,0,0,0-.56.37.87.87,0,0,1-.57.35,1,1,0,0,1-.58-.25,3.77,3.77,0,0,0-.57-.38,1.46,1.46,0,0,0-1.32,0c-.41.2-.87.55-1.35.46s-.86-.48-1.35-.56-.86.24-1.25.53a.77.77,0,0,1-.6.19,1.89,1.89,0,0,1-.54-.25,2.89,2.89,0,0,0-1.11-.58c-.53-.06-.87.31-1.27.56-.57.37-1.09-.06-1.59-.34A1.32,1.32,0,0,0,6.83,34c-.18.15-.32.34-.5.49a.5.5,0,0,1-.63,0,2.73,2.73,0,0,0-.62-.4.89.89,0,0,0-.58,0,.5.5,0,0,0-.33.43c0,.23.34.23.37,0Z"/><path class="cls-1" d="M29.24,35.33a1.18,1.18,0,0,1-.82-.34l0,0a1.22,1.22,0,0,0-.55-.38,1.06,1.06,0,0,0-.68,0,1.26,1.26,0,0,0-.36.24,1.58,1.58,0,0,1-.29.22.83.83,0,0,1-.75,0,2.09,2.09,0,0,1-.53-.34,1.24,1.24,0,0,0-.77-.37h0a1.29,1.29,0,0,0-.71.3A1.47,1.47,0,0,1,23,35a1.63,1.63,0,0,1-1.12-.41l-.1-.07a1.4,1.4,0,0,0-.47-.24.54.54,0,0,0-.49.19l0,0c-.33.31-.67.63-1.19.48a2,2,0,0,1-.67-.37,2.48,2.48,0,0,0-.5-.32,1.32,1.32,0,0,0-1.1.24l-.15.07a1.83,1.83,0,0,1-1.4.24,2.8,2.8,0,0,1-.58-.27l-.11-.06a1.26,1.26,0,0,0-.62-.2,1.25,1.25,0,0,0-.63.35,1.66,1.66,0,0,1-.53.34,1.38,1.38,0,0,1-1.24-.27l-.2-.14a1.35,1.35,0,0,0-.85-.37,1.25,1.25,0,0,0-.65.34,1.76,1.76,0,0,1-.56.33,1.79,1.79,0,0,1-1.49-.39l-.18-.1a1.2,1.2,0,0,0-.8-.24.89.89,0,0,0-.47.33l-.06.06a1.36,1.36,0,0,1-.58.41,1,1,0,0,1-.75-.15l-.21-.16a1.25,1.25,0,0,0-.36-.22.44.44,0,0,0-.3,0s0,0,0,0a.27.27,0,0,1-.16.22.3.3,0,0,1-.28,0,.23.23,0,0,1-.09-.22.58.58,0,0,1,.38-.5.94.94,0,0,1,.64,0,1.53,1.53,0,0,1,.46.28l.17.13c.22.14.38.15.53,0a1.88,1.88,0,0,0,.25-.24,3,3,0,0,1,.25-.25,1.4,1.4,0,0,1,1.64,0l.21.12c.43.27.84.52,1.3.23l.25-.18a1.46,1.46,0,0,1,1.07-.39,2.18,2.18,0,0,1,1,.45l.19.13a1.39,1.39,0,0,0,.51.24.66.66,0,0,0,.53-.17l.16-.12a1.47,1.47,0,0,1,1.16-.43,2.41,2.41,0,0,1,.7.29,2,2,0,0,0,.64.28,1.61,1.61,0,0,0,1-.3l.3-.16a1.52,1.52,0,0,1,1.39-.05,3.35,3.35,0,0,1,.44.29l.14.1a.94.94,0,0,0,.53.24.78.78,0,0,0,.46-.28l.05,0a1.33,1.33,0,0,1,.59-.39,1.43,1.43,0,0,1,1.2.38l.06,0a2,2,0,0,0,.47.26.63.63,0,0,0,.58-.13l.13-.09a1.83,1.83,0,0,1,.58-.33,1.4,1.4,0,0,1,.86,0,2,2,0,0,1,.66.41l.07,0a.52.52,0,0,0,.89,0,1.57,1.57,0,0,1,.25-.2,1.61,1.61,0,0,1,1.52,0,2.16,2.16,0,0,1,.4.32,2.09,2.09,0,0,0,.22.2c.45.35.95-.12,1.38-.62A.23.23,0,0,1,30.5,34a.28.28,0,0,1,.16.45,3.41,3.41,0,0,1-.64.62A1.34,1.34,0,0,1,29.24,35.33Zm-1.72-1a1.49,1.49,0,0,1,.36,0,1.45,1.45,0,0,1,.62.43l0,0a1,1,0,0,0,1.38.06,3.4,3.4,0,0,0,.61-.59.12.12,0,0,0,0-.1s-.05-.07-.08-.07,0,0-.07,0c-.29.34-1,1.14-1.61.65a1.7,1.7,0,0,1-.24-.22,1.4,1.4,0,0,0-1.05-.45,1.44,1.44,0,0,0-.66.18,1.21,1.21,0,0,0-.23.18.88.88,0,0,1-.48.28.86.86,0,0,1-.63-.3l-.07,0a1.75,1.75,0,0,0-.61-.37,1.28,1.28,0,0,0-.75,0,1.86,1.86,0,0,0-.53.3l-.13.1a.81.81,0,0,1-.73.15,2,2,0,0,1-.52-.28l-.05,0a1.34,1.34,0,0,0-1.06-.36,1.23,1.23,0,0,0-.52.35l-.05.05a.88.88,0,0,1-.57.33,1.08,1.08,0,0,1-.63-.26l-.15-.11a2.31,2.31,0,0,0-.42-.27,1.34,1.34,0,0,0-1.24,0l-.29.15a1.74,1.74,0,0,1-1.12.31,2.11,2.11,0,0,1-.69-.29,2.14,2.14,0,0,0-.65-.27,1.25,1.25,0,0,0-1,.39l-.17.13a.86.86,0,0,1-.66.2,1.4,1.4,0,0,1-.57-.26l-.2-.14a2.09,2.09,0,0,0-.89-.42,1.31,1.31,0,0,0-.94.36,2.4,2.4,0,0,1-.26.18c-.55.35-1,0-1.48-.22l-.2-.12A1.24,1.24,0,0,0,6.88,34l-.23.23a2.29,2.29,0,0,1-.27.27.59.59,0,0,1-.73,0l-.18-.14a1.51,1.51,0,0,0-.42-.25.84.84,0,0,0-.52,0,.4.4,0,0,0-.27.36,0,0,0,0,0,0,.06.13.13,0,0,0,.11,0,.13.13,0,0,0,.06-.09h0a.24.24,0,0,1,.09-.15.71.71,0,0,1,.45,0,1.41,1.41,0,0,1,.42.26l.19.14a.78.78,0,0,0,.61.13,1.09,1.09,0,0,0,.51-.36l0-.06A1,1,0,0,1,7.34,34a1.45,1.45,0,0,1,.92.26l.18.1a1.67,1.67,0,0,0,1.35.38,1.84,1.84,0,0,0,.51-.31,1.49,1.49,0,0,1,.74-.37,1.53,1.53,0,0,1,1,.4l.19.13a1.17,1.17,0,0,0,1.1.26,1.66,1.66,0,0,0,.47-.31,1.41,1.41,0,0,1,.73-.39,1.49,1.49,0,0,1,.71.22l.11.06a3.06,3.06,0,0,0,.55.26,1.71,1.71,0,0,0,1.28-.23l.14-.07a1.45,1.45,0,0,1,1.24-.25,2.73,2.73,0,0,1,.54.34,2.09,2.09,0,0,0,.61.35c.44.12.73-.15,1-.44l0,0a.69.69,0,0,1,.63-.24,1.4,1.4,0,0,1,.53.27l.11.07a1.55,1.55,0,0,0,1,.39,1.45,1.45,0,0,0,.62-.31,1.43,1.43,0,0,1,.81-.33h0a1.4,1.4,0,0,1,.88.41,2.58,2.58,0,0,0,.49.32.68.68,0,0,0,.59,0,1.26,1.26,0,0,0,.27-.2,1.33,1.33,0,0,1,.41-.27A1.31,1.31,0,0,1,27.52,34.35Z"/><path class="cls-1" d="M19.54,34.46a.77.77,0,0,1,0-.71h0v-.32a.65.65,0,0,1-.54.25.69.69,0,0,1-.36-.1v2.47a.45.45,0,0,0,.09.28.4.4,0,0,0,.25.16.42.42,0,0,0,.31,0,.5.5,0,0,0,.21-.22.65.65,0,0,0,0-.13V34.67a0,0,0,0,1,0,0A1.34,1.34,0,0,1,19.54,34.46Z"/><path class="cls-1" d="M23.38,33.33a.66.66,0,0,1,.65-.45h.06s0-.1,0-.15V32.3A.43.43,0,0,0,24,32a.42.42,0,0,0-.32-.13.44.44,0,0,0-.45.44v.47a2.85,2.85,0,0,0,.11.65Z"/><path class="cls-1" d="M27.71,32a.4.4,0,0,0-.31-.13.42.42,0,0,0-.32.13.44.44,0,0,0-.13.31v.44a1.29,1.29,0,0,1-.11.55,1.31,1.31,0,0,1-.3.46,1.41,1.41,0,0,1-.46.3,1.38,1.38,0,0,1-.56.12,1.45,1.45,0,0,1-.47-.08.68.68,0,0,1-.52.22h-.11a.61.61,0,0,1-.32.27l.12.09a1.47,1.47,0,0,0,.39.21l.23.08a.86.86,0,0,0,.23.06v1.05a.44.44,0,0,0,.13.31.42.42,0,0,0,.32.13.44.44,0,0,0,.44-.44v-.3A.78.78,0,0,1,26,35a.66.66,0,0,1,.17-.29,1.09,1.09,0,0,1,.39-.41l.21-.08a.66.66,0,0,1,.61-.35l.18,0,.15-.28a2.48,2.48,0,0,0,.18-.87V32.3A.4.4,0,0,0,27.71,32Z"/><path class="cls-1" d="M11.82,31.62a.43.43,0,0,1-.32-.14.4.4,0,0,1-.13-.31.42.42,0,0,1,.13-.32.43.43,0,0,1,.32-.14.45.45,0,0,1,.32.14.42.42,0,0,1,.13.32.4.4,0,0,1-.13.31A.45.45,0,0,1,11.82,31.62Zm0,.54a.44.44,0,0,1,.45.45V36a.42.42,0,0,1-.13.32.44.44,0,0,1-.32.13.44.44,0,0,1-.45-.45V32.61a.44.44,0,0,1,.13-.32A.42.42,0,0,1,11.82,32.16Z"/><path class="cls-1" d="M17.5,33.53a.78.78,0,0,1,.28,0V32.3a.45.45,0,0,0-.14-.32.42.42,0,0,0-.32-.13A.44.44,0,0,0,17,32a.48.48,0,0,0-.13.32v1.63A.67.67,0,0,1,17.5,33.53Z"/><path class="cls-1" d="M17,35a.69.69,0,0,1-.11-.13L14.32,32a.39.39,0,0,0-.31-.15.43.43,0,0,0-.33.11.49.49,0,0,0-.14.29h0v1.57a.65.65,0,0,1,.56-.28.75.75,0,0,1,.35.08v-.14L17,36.35l0,0h.56l0,0v0h0l0,0h0v0h0v0h0a0,0,0,0,0,0,0h0a0,0,0,0,0,0,0v0h0v-.09h0V35.7h-.12A.67.67,0,0,1,17,35Z"/><path class="cls-1" d="M9.8,32a.45.45,0,0,0-.3-.16.4.4,0,0,0-.32.08.24.24,0,0,0-.1.1.57.57,0,0,0-.08.13l-.34.56-.24.42a.66.66,0,0,1,.6.51l.14,0,.57-1a.36.36,0,0,0,0-.09.41.41,0,0,1,.05-.09.4.4,0,0,0,.06-.26A.38.38,0,0,0,9.8,32Z"/><path class="cls-1" d="M7.52,33.88a.52.52,0,0,1,0-.17V32.4a.76.76,0,0,0,0-.15.47.47,0,0,0-.18-.3A.45.45,0,0,0,7,31.86a.45.45,0,0,0-.37.43v3.76a.4.4,0,0,0,.1.28.38.38,0,0,0,.25.16.39.39,0,0,0,.3,0,.41.41,0,0,0,.21-.22.22.22,0,0,0,0-.13c0-.05,0-.09,0-.14V34.67s0,0,0,0h.32l0,0A.73.73,0,0,1,7.52,33.88Z"/><path class="cls-1" d="M10.36,35.38a3.14,3.14,0,0,0-.3-.61h0a.67.67,0,0,1-.67.49h-.1a1.29,1.29,0,0,1,.19.32,1.53,1.53,0,0,1,.08.37.77.77,0,0,1,0,.15.32.32,0,0,0,0,.14.4.4,0,0,0,.21.23.42.42,0,0,0,.31,0,.45.45,0,0,0,.25-.16.47.47,0,0,0,.09-.28A2.18,2.18,0,0,0,10.36,35.38Z"/><path class="cls-1" d="M26,35.07a1.71,1.71,0,0,1,.18-.36l-.28-.1-.12.23S25.81,35.2,26,35.07Z"/><path class="cls-1" d="M22.91,22.92h-.1A4,4,0,0,1,22.86,24a5.28,5.28,0,0,1-5.29,5.28A5.18,5.18,0,0,1,15.85,29a5.28,5.28,0,0,1-3.57-5v-.09h0a4.32,4.32,0,0,1,.06-1,.22.22,0,0,1-.18,0,1,1,0,0,1-.56-1.12c.13-.46.45-.68.75-.59a.55.55,0,0,1,.34.48c1.23-3.13,4.74-6.33,4.89-6.46l0,0c.39.35,3.58,3.34,4.8,6.29a.46.46,0,0,1,.31-.35c.3-.09.62.13.75.59A1,1,0,0,1,22.91,22.92Z"/><path d="M17.57,29.37A5.34,5.34,0,0,1,12.2,24v-.09a4,4,0,0,1,0-.9l-.11,0a.92.92,0,0,1-.48-.45,1,1,0,0,1-.13-.77c.13-.49.49-.76.85-.66a.56.56,0,0,1,.33.31c1.33-3.12,4.78-6.23,4.82-6.26l.06-.05.09.08a22.23,22.23,0,0,1,4.74,6.15.55.55,0,0,1,.29-.23c.37-.1.72.17.85.66a1,1,0,0,1-.13.77.89.89,0,0,1-.48.45h0a4.32,4.32,0,0,1,0,1,5.34,5.34,0,0,1-5.37,5.35Zm-5.11-6.62,0,.17a4.22,4.22,0,0,0-.05,1V24a5.19,5.19,0,0,0,3.51,4.91,5.25,5.25,0,0,0,3.37,0A5.2,5.2,0,0,0,22.77,24a3.81,3.81,0,0,0,0-1.06l0-.11h.18a.78.78,0,0,0,.38-.37.86.86,0,0,0,.12-.64c-.11-.4-.38-.61-.64-.54a.4.4,0,0,0-.26.3l-.07.23-.09-.22c-1.19-2.89-4.3-5.83-4.75-6.25-.47.43-3.66,3.43-4.81,6.37l-.12.3,0-.32c0-.22-.14-.37-.29-.41s-.53.14-.64.53a.88.88,0,0,0,.12.65.78.78,0,0,0,.38.37.14.14,0,0,0,.12,0Z"/><path d="M17.79,18.63a.24.24,0,0,1,.32-.35.45.45,0,0,1,.12.61.62.62,0,0,1-.5.4.57.57,0,0,1-.47-.31,1.06,1.06,0,0,1,.35-1.23c.29-.31.64-.55.6-1a1.23,1.23,0,0,0-.32-.62,1.13,1.13,0,0,1-.21-.83c0-.1-.13-.1-.14,0a1.25,1.25,0,0,0,.21.88c.2.28.4.53.27.89s-.44.5-.64.74a1.42,1.42,0,0,0-.35.74.78.78,0,0,0,.75.91.8.8,0,0,0,.58-1.11.43.43,0,0,0-.6-.16.39.39,0,0,0-.07.57c.06.07.16,0,.1-.1Z"/></g></g></svg>