<svg xmlns="http://www.w3.org/2000/svg" viewBox="0 0 43.14 37.99"><defs><style>.cls-1{fill:#481b0f;}.cls-2{fill:#e26d26;}</style></defs><g id="Capa_2" data-name="Capa 2"><g id="Capa_4" data-name="Capa 4"><path class="cls-1" d="M38.17,19.74A16.3,16.3,0,0,1,36,27.83a16.44,16.44,0,0,1-5,5.44A16.14,16.14,0,0,1,24.18,36a15.76,15.76,0,0,1-2.4.18A16.37,16.37,0,0,1,5.39,19.74q0-.68.06-1.35a16.38,16.38,0,0,1,26-11.88,17,17,0,0,1,3.16,3c.33.42.65.85.94,1.3A17.11,17.11,0,0,1,37.12,14,16.34,16.34,0,0,1,38.17,19.74Z"/><path class="cls-1" d="M21.78,36.25A16.5,16.5,0,0,1,5.27,19.74c0-.45,0-.9.06-1.36a16.33,16.33,0,0,1,2-6.53A16.51,16.51,0,0,1,31.52,6.41,18.06,18.06,0,0,1,33.41,8,15.93,15.93,0,0,1,34.7,9.47c.34.42.65.86.95,1.31a16.33,16.33,0,0,1,1.58,3.12,16.54,16.54,0,0,1-1.09,14,16,16,0,0,1-2.66,3.51,16.67,16.67,0,0,1-2.38,2,16.57,16.57,0,0,1-9.32,2.88Zm0-32.78A16.24,16.24,0,0,0,5.57,18.4c0,.45-.06.9-.06,1.34A16.31,16.31,0,0,0,17.36,35.4a16,16,0,0,0,4.42.61,15.69,15.69,0,0,0,2.38-.18A16,16,0,0,0,31,33.18a16.23,16.23,0,0,0,7.09-13.44A16,16,0,0,0,37,14a15.87,15.87,0,0,0-1.55-3.08,15.11,15.11,0,0,0-.93-1.29,14.37,14.37,0,0,0-1.28-1.43A16.45,16.45,0,0,0,31.38,6.6,16.14,16.14,0,0,0,21.78,3.47Z"/><circle class="cls-1" cx="21.57" cy="5.09" r="4.97"/><path class="cls-1" d="M21.57,10.18a5.09,5.09,0,1,1,5.09-5.09A5.1,5.1,0,0,1,21.57,10.18Zm0-9.94a4.85,4.85,0,1,0,4.85,4.85A4.86,4.86,0,0,0,21.57.24Z"/><circle class="cls-1" cx="15.42" cy="5.8" r="3.19"/><path class="cls-1" d="M15.42,9.11A3.31,3.31,0,1,1,18.73,5.8,3.32,3.32,0,0,1,15.42,9.11Zm0-6.38A3.07,3.07,0,1,0,18.49,5.8,3.08,3.08,0,0,0,15.42,2.73Z"/><circle class="cls-1" cx="27.71" cy="5.8" r="3.19"/><path class="cls-1" d="M27.71,9.11A3.31,3.31,0,1,1,31,5.8,3.31,3.31,0,0,1,27.71,9.11Zm0-6.38A3.07,3.07,0,1,0,30.78,5.8,3.08,3.08,0,0,0,27.71,2.73Z"/><circle class="cls-1" cx="10.07" cy="9.36" r="4.27"/><path class="cls-1" d="M10.07,13.74a4.39,4.39,0,1,1,4.38-4.38A4.39,4.39,0,0,1,10.07,13.74Zm0-8.53a4.15,4.15,0,1,0,4.14,4.15A4.15,4.15,0,0,0,10.07,5.21Z"/><circle class="cls-1" cx="32.9" cy="9.36" r="4.27"/><path class="cls-1" d="M32.9,13.74a4.39,4.39,0,1,1,4.38-4.38A4.39,4.39,0,0,1,32.9,13.74Zm0-8.53A4.15,4.15,0,1,0,37,9.36,4.15,4.15,0,0,0,32.9,5.21Z"/><circle class="cls-1" cx="4.97" cy="14.22" r="3.19"/><path class="cls-1" d="M5,17.52a3.31,3.31,0,1,1,3.31-3.3A3.3,3.3,0,0,1,5,17.52Zm0-6.37A3.07,3.07,0,1,0,8,14.22,3.08,3.08,0,0,0,5,11.15Z"/><circle class="cls-1" cx="37.96" cy="14.22" r="3.19"/><path class="cls-1" d="M38,17.52a3.31,3.31,0,1,1,3.3-3.3A3.31,3.31,0,0,1,38,17.52Zm0-6.37A3.07,3.07,0,1,0,41,14.22,3.07,3.07,0,0,0,38,11.15Z"/><circle class="cls-1" cx="4.97" cy="21.43" r="4.85"/><path class="cls-1" d="M5,26.4a5,5,0,1,1,5-5A5,5,0,0,1,5,26.4Zm0-9.71A4.74,4.74,0,1,0,9.7,21.43,4.74,4.74,0,0,0,5,16.69Z"/><circle class="cls-1" cx="38.17" cy="21.43" r="4.85"/><path class="cls-1" d="M38.17,26.4a5,5,0,1,1,5-5A5,5,0,0,1,38.17,26.4Zm0-9.71a4.74,4.74,0,1,0,4.73,4.74A4.74,4.74,0,0,0,38.17,16.69Z"/><circle class="cls-1" cx="6.88" cy="27.01" r="3.19"/><path class="cls-1" d="M6.88,30.31a3.31,3.31,0,1,1,3.3-3.3A3.31,3.31,0,0,1,6.88,30.31Zm0-6.37A3.07,3.07,0,1,0,10,27,3.08,3.08,0,0,0,6.88,23.94Z"/><circle class="cls-1" cx="36.22" cy="27.01" r="3.19"/><path class="cls-1" d="M36.22,30.31a3.31,3.31,0,1,1,3.3-3.3A3.31,3.31,0,0,1,36.22,30.31Zm0-6.37A3.07,3.07,0,1,0,39.28,27,3.07,3.07,0,0,0,36.22,23.94Z"/><circle class="cls-1" cx="11.34" cy="31.17" r="4.27"/><path class="cls-1" d="M11.34,35.55a4.39,4.39,0,1,1,4.39-4.38A4.39,4.39,0,0,1,11.34,35.55Zm0-8.53a4.15,4.15,0,1,0,4.15,4.15A4.15,4.15,0,0,0,11.34,27Z"/><circle class="cls-1" cx="31.81" cy="31.17" r="4.27"/><path class="cls-1" d="M31.81,35.55a4.39,4.39,0,1,1,4.38-4.38A4.39,4.39,0,0,1,31.81,35.55Zm0-8.53A4.15,4.15,0,1,0,36,31.17,4.15,4.15,0,0,0,31.81,27Z"/><circle class="cls-1" cx="16.33" cy="34.68" r="3.19"/><path class="cls-1" d="M16.33,38a3.31,3.31,0,1,1,3.31-3.31A3.31,3.31,0,0,1,16.33,38Zm0-6.37a3.07,3.07,0,1,0,3.07,3.06A3.07,3.07,0,0,0,16.33,31.62Z"/><circle class="cls-1" cx="26.8" cy="34.68" r="3.19"/><path class="cls-1" d="M26.8,38a3.31,3.31,0,1,1,3.31-3.31A3.31,3.31,0,0,1,26.8,38Zm0-6.37a3.07,3.07,0,1,0,3.07,3.06A3.07,3.07,0,0,0,26.8,31.62Z"/><path class="cls-2" d="M28.32,29.8a6.55,6.55,0,1,1-13.09,0v-.11h0c-.35-4.48,6.33-10.57,6.55-10.77C22,19.13,28.8,25.31,28.32,29.8Z"/><path class="cls-1" d="M22.27,17.7a1.81,1.81,0,0,0-.64,2.11c.17.42.7.77.51,1.28a1.67,1.67,0,0,1-.42.5,3.43,3.43,0,0,0-.48.53,1.39,1.39,0,0,0,.37,2.13c.83.34,1.63-.62,1.42-1.42a.78.78,0,0,0-1.06-.5.68.68,0,0,0-.19,1.06c.24.3.65-.12.42-.42-.09-.1.14-.15.22,0s0,.38-.05.52c-.18.31-.53.39-.75.08-.48-.66.34-1.31.75-1.73a1.38,1.38,0,0,0,.4-.89,1.5,1.5,0,0,0-.39-1,1.2,1.2,0,0,1,.19-1.7c.31-.22,0-.74-.3-.51Z"/><path class="cls-2" d="M15.69,27.54c-.16.57-.25,1-.62.91a1.3,1.3,0,0,1-.69-1.39c.16-.58.56-.84.93-.74S15.85,27,15.69,27.54Z"/><path class="cls-2" d="M27.78,27.54c.16.57.24,1,.61.91a1.3,1.3,0,0,0,.69-1.39c-.16-.58-.55-.84-.92-.74S27.62,27,27.78,27.54Z"/></g></g></svg>