<svg xmlns="http://www.w3.org/2000/svg" viewBox="0 0 447.97 223.99"><defs><style>.cls-1{fill:#d3c3a1;opacity:0.31;}.cls-2{fill:#473119;}.cls-3{font-size:11px;fill:#3a2d0e;font-family:BubbleGum;}</style></defs><g id="Capa_2" data-name="Capa 2"><g id="Capa_4" data-name="Capa 4"><rect class="cls-1" width="447.97" height="223.99"/><path class="cls-2" d="M40.74,20.06V147.33a.15.15,0,0,0,.3,0V20.06a.15.15,0,0,0-.3,0Z"/><path class="cls-2" d="M71.1,20.43l-.74,24.73c-.24,8-.75,16.08-.55,24.09S72,85,73,92.88a166.52,166.52,0,0,1,1.11,23.73c-.18,9.09-.92,18.15-1.8,27.19,0,.2.28.2.3,0,1.56-15.94,2.67-32,1-48-.82-7.9-2.84-15.67-3.37-23.6s.1-16.06.33-24l.83-27.7c0-.2-.29-.2-.3,0Z"/><path class="cls-2" d="M101.6,21.77c-2,16.62-4,33.54-.59,50.13,1.7,8.27,3.89,16.35,4.73,24.78a120.4,120.4,0,0,1,0,23.86,119.74,119.74,0,0,1-5.88,26.84c-.07.18.22.26.29.08a120,120,0,0,0,6.18-47.34,150.81,150.81,0,0,0-4-23.79,106.24,106.24,0,0,1-2.86-25.68c.12-9.67,1.29-19.29,2.46-28.88,0-.19-.27-.19-.3,0Z"/><path class="cls-2" d="M144.39,20a41.69,41.69,0,0,1,2.79,13,88.5,88.5,0,0,1,.37,13.52c-.33,4.5-2,8.52-3.75,12.61-1.49,3.41-3,6.91-3.35,10.66-.4,4.15.78,8.21,2.13,12.1,1.48,4.28,3,8.46,3.58,13a59.83,59.83,0,0,1-.19,13.77,32.82,32.82,0,0,1-1.17,6.61c-.71,2.14-2.24,3.59-3.32,5.5-2.21,3.9-.47,8.7.57,12.68l4.15,15.94a.15.15,0,0,0,.29-.08l-3.65-14c-1.08-4.16-3.29-9.42-1.46-13.65.84-1.93,2.49-3.35,3.33-5.29A20.14,20.14,0,0,0,146,111a69.84,69.84,0,0,0,.72-13.55A47,47,0,0,0,143.9,84.7c-1.44-4.07-3.07-8.21-3.22-12.58-.29-8.45,5.75-15.34,6.94-23.51.71-4.84.27-9.88-.07-14.74a43.37,43.37,0,0,0-2.87-13.93c-.07-.18-.36-.1-.29.08Z"/><path class="cls-2" d="M175,21.65a19.87,19.87,0,0,0-2.39,20.43c.94,2,2.22,3.79,3.15,5.79a11,11,0,0,1,.89,7.05c-.91,4.28-3.75,7.87-5.81,11.64A29.34,29.34,0,0,0,166.93,79a7.77,7.77,0,0,0,1.54,5.14c1.15,1.53,2.67,2.74,3.78,4.3,3.05,4.26,1,9.67-.88,13.94-1.71,4-3,7.76-2.41,12.14,1.45,9.95,11.23,19.82,6.52,30.2-.08.18.18.33.26.15,3.78-8.34-1.91-16.81-4.82-24.43-1.79-4.67-2.5-9.38-.8-14.2,1.44-4.09,3.87-7.94,4-12.4a9.18,9.18,0,0,0-1.27-5.09,35.13,35.13,0,0,0-3.53-4.08,8.37,8.37,0,0,1-1.91-7.16,31.52,31.52,0,0,1,1.81-6.74c2.73-7.07,10.47-14.16,7.13-22.3-.91-2.23-2.33-4.19-3.38-6.34a18.69,18.69,0,0,1-1.81-7,19.57,19.57,0,0,1,4.06-13.25c.12-.15-.09-.37-.21-.22Z"/><path class="cls-2" d="M203.48,20.16a17.17,17.17,0,0,0-8.14,11.07,14.23,14.23,0,0,0,.1,7.07,9.17,9.17,0,0,0,4,5.11c2,1.33,4.42,2.21,6.24,3.87A8.5,8.5,0,0,1,208.17,55c-.86,5.79-5.34,9.65-9,13.83a21,21,0,0,0-5.61,12.54,20.52,20.52,0,0,0,3.47,12.93c2.93,4.24,8.33,6.5,9.83,11.71s-.68,10.8-4,14.74c-1.78,2.13-4.24,3.75-5.52,6.26s-.93,5.64-.19,8.36c1.22,4.49,3.31,10,8.25,11.46a.15.15,0,0,0,.08-.29c-5-1.45-7.1-7.33-8.21-11.9-.78-3.19-.77-6.41,1.38-9.07,1.53-1.9,3.5-3.37,5-5.32a17.78,17.78,0,0,0,3.9-12.07,11.38,11.38,0,0,0-2.16-5.77c-1.45-2-3.44-3.37-5.22-5a19.77,19.77,0,0,1-1.88-27.09c3-3.82,7.08-7,9-11.59,1.69-3.93,1.86-8.78-1.6-11.81-1.84-1.61-4.15-2.49-6.18-3.81A9.41,9.41,0,0,1,195.26,35a16.71,16.71,0,0,1,8.38-14.58.15.15,0,0,0-.16-.26Z"/><path class="cls-2" d="M242.66,20.15c6.18,1.13,10.17,6.72,11.44,12.56a34.54,34.54,0,0,1,.45,10.15,26.56,26.56,0,0,1-2,8.93,10.15,10.15,0,0,1-5.85,5.61,10.68,10.68,0,0,1-7.08-.2A8.6,8.6,0,0,1,235.14,45a8.82,8.82,0,0,1,5.44-4.67,9.7,9.7,0,0,1,8.53,2.36c5.26,4.47,5.51,11.86,4.82,18.22A73.85,73.85,0,0,1,252,71.54c-.8,3.09-1.69,6.33-3.62,8.93s-5.31,4.55-8.6,3.59c-2.77-.81-4.39-3.48-5.06-6.14-.72-2.82-.64-6.31,1.08-8.76,1.87-2.66,5.47-3.17,8.37-2.14,6.27,2.23,8.55,10.27,9.54,16.12,1.08,6.4,1.93,14.14-1.11,20.15-2.56,5-8.83,9.08-14.31,5.84-5-3-6.37-9.93-2-14.06a9.53,9.53,0,0,1,7.29-2.61c3.33.32,6.13,2.74,8,5.37,3.91,5.49,4.34,12.58,3.25,19a62.17,62.17,0,0,1-2.52,9.76c-1,3-2.47,6-5,8.07s-5.84,2.9-8.73,1.48a7.77,7.77,0,0,1-4-5.82,13.19,13.19,0,0,1,1-7.66,4.6,4.6,0,0,1,4.07-3.09,10.87,10.87,0,0,1,4.32.84c5.23,2,9.36,7.24,9.57,12.92.2,5.44-3.56,10.31-8.57,12.16a11.25,11.25,0,0,1-7.4.23c-.18-.06-.26.23-.08.28,5.35,1.72,11.22-.95,14.28-5.49,3.32-4.94,2.34-11.26-1.32-15.73-3-3.61-11.55-8.85-14.8-2.92-2.29,4.16-2.43,11,1.83,14a7.82,7.82,0,0,0,7.88.32c3.08-1.45,5.07-4.3,6.37-7.35a53.6,53.6,0,0,0,3.27-11.46,32,32,0,0,0,.22-11.26c-1.05-5.9-5.08-13.5-11.84-14-5.33-.4-10.63,4.21-10.14,9.71.51,5.7,6.2,10,11.78,8.37,6.61-1.88,9.45-8.87,9.78-15.15a56.25,56.25,0,0,0-.82-11.8,32.1,32.1,0,0,0-3.5-10.75c-1.52-2.65-3.77-5.09-6.79-6A7.52,7.52,0,0,0,236,68.39c-3.54,4-2.48,12.26,2,15.18,2.55,1.68,5.8,1.12,8.2-.57,2.74-1.91,4.18-5.08,5.16-8.17a70.32,70.32,0,0,0,2.63-12,36.09,36.09,0,0,0,.09-11.64c-1.14-5.89-6-12.21-12.7-11.29-5,.69-8.35,6.29-7.49,11.11.93,5.2,6.54,7.91,11.44,7.07,6.34-1.08,8.62-7.53,9.3-13.17.86-7,.61-15-4.3-20.56a13.38,13.38,0,0,0-7.6-4.46c-.19,0-.27.26-.08.29Z"/><path class="cls-2" d="M274.63,19.18c6.87,1.68,6.55,11.12,5.7,16.58-.49,3.14-2.1,5.92-5.58,6.19-3,.23-7.41-.86-9.11-3.52a3.88,3.88,0,0,1,.08-4.67,4.73,4.73,0,0,1,3.52-1.3,13.58,13.58,0,0,1,8.24,2.83c2.37,2,2.86,5.24,3,8.14a33,33,0,0,1-.56,9.82C278.57,58.71,273,64.49,267.07,61a5.36,5.36,0,0,1-2-7.49,7.53,7.53,0,0,1,6.9-3.71c3,.28,5.55,2.46,7,5a14.49,14.49,0,0,1,1.56,9.21A35.67,35.67,0,0,1,277.43,74c-1.31,2.89-3.42,6.1-7,6.12-3.77,0-5.47-4.5-4.75-7.72.69-3.07,4-4.22,6.81-3.52,6.27,1.54,7.31,10.37,7,15.65-.25,4.83-2.52,16.68-9.73,14.47-3.37-1-4.85-5-3.79-8.19a4,4,0,0,1,3.78-3A8,8,0,0,1,274,89.49c4.34,3.05,5.93,8.74,6,13.8,0,4.56-1.24,11.53-6.27,13.2a5.5,5.5,0,1,1-2.15-10.7,8.21,8.21,0,0,1,7.25,3.7,15.37,15.37,0,0,1,2.16,8.72c0,5.79-1.63,12.25-6.18,16.16-2.41,2.07-6.51,3.26-8.55.06a5.63,5.63,0,0,1,.72-6.93,7.57,7.57,0,0,1,7.88-1.28c3,1.18,5,4,6.13,6.93s1.48,6.49-.25,9.26a7.71,7.71,0,0,1-8.2,3.39A7.87,7.87,0,0,1,266.9,140c0-.18-.33-.11-.29.08a8.12,8.12,0,0,0,6,6.08,8,8,0,0,0,8-3c4.08-5.31.26-14.91-5.65-17.22a7.91,7.91,0,0,0-8.05,1.24,5.89,5.89,0,0,0-1.22,6.8c1.21,2.61,4.06,3.32,6.63,2.3,3.34-1.33,5.68-4.63,7-7.83a26.59,26.59,0,0,0,1.95-10.62c0-3.35-.71-7-3-9.55a8.16,8.16,0,0,0-7.84-2.59,5.8,5.8,0,0,0,2,11.37c2.84-.21,4.89-2.45,6.08-4.87a21.45,21.45,0,0,0-.12-17.92,12.5,12.5,0,0,0-6.13-6.14,5.19,5.19,0,0,0-4.17-.26,4.86,4.86,0,0,0-2.44,3.36A6.77,6.77,0,0,0,269,99c2.95,1.35,5.79-.06,7.44-2.63a24.53,24.53,0,0,0,3.36-11.2,23.84,23.84,0,0,0-1.64-11.34c-1.25-2.77-3.52-5.18-6.69-5.44-2.7-.23-5.43,1.12-6.06,3.91s.45,6.79,3.28,7.82c3.16,1.15,6.19-1.11,7.79-3.67a31.39,31.39,0,0,0,2.48-5.4,31.74,31.74,0,0,0,1.81-6.47A14.85,14.85,0,0,0,279,54.24c-1.6-2.52-4.26-4.61-7.34-4.72a7.87,7.87,0,0,0-7,4.17,5.57,5.57,0,0,0,1.48,7.06,7.73,7.73,0,0,0,7.92.86c7.19-3.31,7.39-13.17,6.62-19.86-.38-3.34-1.63-6.24-4.75-7.81-2.5-1.26-5.82-2.38-8.61-1.49s-3.39,3.85-1.91,6.13c1.77,2.74,6.09,3.84,9.17,3.68,3.29-.17,5.23-2.48,5.9-5.56a28.2,28.2,0,0,0,.48-5,22.87,22.87,0,0,0-.39-6.18c-.72-3-2.71-5.83-5.84-6.6-.19,0-.27.25-.08.29Z"/><path class="cls-2" d="M303.44,18.39c4.36,4,4.8,12.46-.91,15.57a4.84,4.84,0,0,1-4.72.16,4.1,4.1,0,0,1-2.15-4.25c.76-3.15,5.1-2.88,7-1.11,2.35,2.16,2.59,5.94,2.47,8.92-.13,3.21-1.28,7-4.82,7.82a4,4,0,0,1-4-1c-1.69-2,.25-4.37,2.3-4.82,3.09-.67,5.87,1.47,6.87,4.28,1.61,4.55.27,15.82-6.72,14.51A3.42,3.42,0,0,1,296,56.09a4,4,0,0,1,2.66-4.46c3.67-1.25,6.68,2.37,7.52,5.51s.84,7.06-1,9.84-6.5,4.36-8.61.91a3.42,3.42,0,0,1,.24-4.21,4.17,4.17,0,0,1,4.12-.81c3.26.93,4.28,4.33,4.38,7.38.09,2.83-.05,6.29-1.63,8.73A4.7,4.7,0,0,1,300,81.25a3.32,3.32,0,0,1-3.46-1.89c-.57-1.6.6-3.11,2-3.81a4.33,4.33,0,0,1,5,.8c2.22,2,3.07,5.34,3.1,8.21,0,3.18-1.18,6.46-4.12,8a6.22,6.22,0,0,1-4.39.65c-1.66-.41-3.46-1.9-3.06-3.8a4,4,0,0,1,3.58-2.79,5.22,5.22,0,0,1,4.15,2,13.06,13.06,0,0,1,3.05,10.33c-.55,3-3.39,6.3-6.78,5.52s-5-5.37-1.52-7.18c2.82-1.47,5.85,0,7.48,2.47a15.22,15.22,0,0,1,2.15,8.87c-.17,3.32-1.75,6.6-5,7.79-2.68,1-5.8,0-6.51-3s1.62-5.73,4.84-4.68c2.91.94,5,3.8,6,6.61a11.32,11.32,0,0,1-.6,8.75c-1.43,2.67-5.12,5-7.81,2.45a3,3,0,0,1,0-4.26c1.77-1.72,3.74.16,4.9,1.59,2.15,2.63,3.72,6.12,3.14,9.57-.51,3-2.91,5.93-6,6.36-1.48.2-3.65-.25-4.08-2-.58-2.26,2.33-3.51,4.08-3.57a6,6,0,0,1,6.24,5.08,6.14,6.14,0,0,1-4.39,6.53,6.25,6.25,0,0,1-7.1-3.9c-.06-.18-.35-.11-.29.08a6.23,6.23,0,0,0,11.94-3.55,6.45,6.45,0,0,0-7.4-4.43c-1.48.3-3.18,1.32-3.41,3a2.78,2.78,0,0,0,2.08,2.86c3.41,1.24,6.91-1.62,8.15-4.62,1.59-3.86,0-8.18-2.45-11.29-1-1.23-2.36-3-4.14-2.67a3.21,3.21,0,0,0-2.45,2.84c-.37,3.33,3.89,4.44,6.3,3.2,3.35-1.74,4.54-6.16,4.13-9.66s-2.47-7.24-5.77-8.87c-2.77-1.36-6-.34-6.27,3a4.77,4.77,0,0,0,5.37,5.22c8.48-.82,8.36-13.29,4.05-18.36-2-2.31-5.61-3.26-8.09-1.1s-.82,6.12,2.11,7c3.64,1.16,6.88-2.33,7.49-5.63.71-3.84-.92-9-4.05-11.49a4.8,4.8,0,0,0-4.44-1,4.12,4.12,0,0,0-2.87,2.82c-.79,3.59,4,4.83,6.61,4,3.75-1.17,5.53-4.9,5.55-8.61,0-3.46-1.2-8-4.62-9.57-2.43-1.15-6.5.52-6.15,3.63s4.4,3.3,6.43,1.86c3.11-2.19,3.26-7.42,3.08-10.82s-1.69-7-5.48-7.46c-2.87-.33-5.31,2-4.16,4.93,1.42,3.54,5.71,3.51,8.26,1.24,3.12-2.79,3.23-7.95,2.17-11.71-.95-3.31-4.36-7-8.15-5.4-2.65,1.13-3.79,5-1.06,6.69,3,1.83,6.33-.2,7.71-3,1.66-3.34,2.15-8.22.73-11.72-1.2-3-4.57-5.15-7.78-3.89A3.69,3.69,0,0,0,295.43,43a3.35,3.35,0,0,0,2.69,2.88c3.81.91,6.49-2.63,7.11-5.94.65-3.52.5-8.5-2.2-11.21-1.85-1.86-5.77-2.33-7.29.22C294.05,31.72,297.1,35,300,35c3.8-.08,6.46-3.81,7-7.27a10.8,10.8,0,0,0-3.32-9.52c-.14-.13-.35.08-.21.21Z"/><path class="cls-2" d="M347.72,19.81c2.16,2.59,4.31,6.11,2.72,9.54a4.4,4.4,0,0,1-3.58,2.73,3.62,3.62,0,0,1-3.41-2.63c-.23-.82-.21-2,.84-1.89a5.34,5.34,0,0,1,1.9.72A7.4,7.4,0,0,1,349.5,32a7.26,7.26,0,0,1-2.19,8c-.84.69-2.18,1.5-3.26.92a2.21,2.21,0,0,1-1-2.08c.13-2.11,2.49-2.67,4.21-2.1,3.43,1.15,4.63,5.64,2.6,8.5-.9,1.26-2.75,2.63-4.4,2.41-2-.26-2.06-2.28-.92-3.55s3.08-.73,4.16.44a6.41,6.41,0,0,1,1.52,4.81c-.23,3.08-3.33,6.31-6.44,4.14-1.89-1.33-.08-2.73,1.56-2.81a3.83,3.83,0,0,1,3.78,2.88A7,7,0,0,1,349,58c-.58,1.63-2.21,3.73-4.21,3.13-1.33-.39-2.61-2.47-1.41-3.63,1.59-1.54,4.12.53,5,1.88a5.68,5.68,0,0,1-2.45,8.21,4.87,4.87,0,0,1-2.21.48C342,68,341.07,66.5,342.14,65a3.87,3.87,0,0,1,4.25-1.16c3.45,1,4.19,5.34,3.2,8.36a6.28,6.28,0,0,1-2.69,3.43c-1.65.94-3.91.38-4.07-1.74a3.6,3.6,0,0,1,1.66-3.24c1.5-.87,3.34-.09,4.39,1.12,2.63,3,.47,7.3-2.53,9.13-1,.59-2.86,1.14-3.76.16s.08-2.07,1-2.4a3.41,3.41,0,0,1,2.23,0c2.46.84,3.81,3.81,3.4,6.28a4.26,4.26,0,0,1-1.85,3c-1.17.73-3.09,1-4.13-.12-1.47-1.54.19-3.5,1.79-3.92,1.81-.47,3.33.84,4.1,2.37,1.38,2.77,1.23,7.78-2.22,9-1.63.55-3.7-.14-3.78-2.1-.08-2.21,2-2.76,3.72-1.71a5.5,5.5,0,0,1,.85,8.62,5,5,0,0,1-4.46,1.39c-2.13-.62-1.49-3.14,0-4.09s3.36,0,4.42,1.22a8.37,8.37,0,0,1,2.08,5.36,4.56,4.56,0,0,1-2.36,4.22,2.79,2.79,0,0,1-4.16-2.39c0-2.34,2.77-2.33,4.26-1.44a5.67,5.67,0,0,1,2.43,3.56c.71,3-.81,7.32-4.36,7.54a2.29,2.29,0,0,1-2.23-1.12,1.73,1.73,0,0,1,1-2.67,4.78,4.78,0,0,1,4.51,1.72,4.7,4.7,0,0,1-2.49,7.67,4,4,0,0,1-3.92-.79c-1.11-1.15-.81-2.8,1-2.9a5.48,5.48,0,0,1,2.33.42c3.32,1.3,5.05,5.44,2.21,8.19-1.25,1.22-3.48,1.82-4.89.47-2-1.9.9-3.36,2.54-3.22,3.32.28,5.69,4.55,4.31,7.52a5.09,5.09,0,0,1-3.31,2.71c-1.82.45-5.3-.92-3.15-3.11,2.54-2.59,6.26.26,6.91,3.07.73,3.14-1.93,5.7-5,5.69-.62,0-3.2-.33-2.46-1.23,1-1.22,3.23-1.39,4.62-.95,3.2,1,3.8,5.3,1.54,7.55-.14.13.08.35.21.21a4.82,4.82,0,1,0-7-6.56.16.16,0,0,0,0,.24c2.61,2,7,1,8.19-2.17s-1.41-7.32-4.87-7.14c-1.34.06-3,1.08-3.12,2.55-.1,1.63,1.87,2.32,3.2,2.28a5.2,5.2,0,0,0,4.37-7.47,6,6,0,0,0-4.15-3.45c-1.24-.19-3,.14-3.58,1.38-.73,1.51.75,2.85,2.14,3.11a4.49,4.49,0,0,0,4.28-2c2.54-3.49-.45-7.79-4.29-8.37-1.21-.19-3.1,0-3.06,1.64s1.54,2.49,2.85,2.71c3.55.58,7.08-2.9,5.88-6.46a5.63,5.63,0,0,0-3.72-3.56c-1.3-.37-3.31-.28-3.65,1.33a2.51,2.51,0,0,0,2,2.92c1.84.32,3.62-1,4.55-2.47,1.83-2.92,1.23-7.64-2-9.31-1.3-.66-3.16-.77-4.05.6a2.94,2.94,0,0,0,.78,3.67,3.4,3.4,0,0,0,4.37-.37,5.58,5.58,0,0,0,1.39-5.61A7.61,7.61,0,0,0,346.21,97a3.1,3.1,0,0,0-3.94.82,2.54,2.54,0,0,0-.13,3.29c1.2,1.19,3.38.67,4.67-.07a5.8,5.8,0,0,0,.82-9.5c-1.08-.89-2.93-1.64-4.08-.45a2.87,2.87,0,0,0-.14,3.55c1,1.3,2.94,1.27,4.27.56a5.59,5.59,0,0,0,2.56-4.74c.19-3.06-1.83-8.49-5.85-6.67-1.29.58-2.39,2-1.81,3.45a2.91,2.91,0,0,0,3.16,1.54c3.51-.39,4.59-4.33,3.39-7.21a5.62,5.62,0,0,0-2.94-3.1c-1.23-.5-3.05-.46-3.92.73a1.61,1.61,0,0,0,1,2.52c1.6.46,3.19-.41,4.36-1.42,2.92-2.53,4.2-7.66.14-9.87-2.76-1.5-6.23,1.27-5,4.32a2.77,2.77,0,0,0,3.41,1.51,6.12,6.12,0,0,0,3.62-3.69c1.32-3.42.24-8.51-3.92-9.19a4,4,0,0,0-4.15,1.7,2.08,2.08,0,0,0,1.66,3.22c3.77.54,6.82-3.53,6.13-7a6,6,0,0,0-3.2-4.25c-1.24-.57-3.23-.54-3.6,1.09a3,3,0,0,0,1.77,3.13c1.47.66,3-.31,3.92-1.47,2-2.69,2-8.6-2.09-9.36-1.24-.23-3.14.16-3.66,1.49s1.59,2.25,2.56,2.42c4,.71,5.95-3.81,5.21-7.14a5.39,5.39,0,0,0-3.19-4,2.71,2.71,0,0,0-3.37,1.47,2.27,2.27,0,0,0,.5,3c1.48.93,3.72-.17,4.86-1.19A6,6,0,0,0,348,36.75c-1.44-.72-3.54-.82-4.67.52a2.82,2.82,0,0,0-.05,3.42c1.14,1.43,3.08.47,4.21-.46a7.72,7.72,0,0,0,2.68-5,7.5,7.5,0,0,0-6.51-8,.18.18,0,0,0-.17.07,3.27,3.27,0,0,0,1,4.31,3.6,3.6,0,0,0,4.52,0c4.3-3.18,1.53-8.8-1.12-12-.12-.14-.33.07-.21.22Z"/><path class="cls-2" d="M376.18,20.52c.53.54,1.61,1.28,1.92,1.95.48,1.05-1.39,1.42-2.17,1.51a.15.15,0,0,0-.11.25,7.42,7.42,0,0,0,1.73,1.48c.26.16.85.31,1,.52.55.59-.07,1.16-.62,1.5-1.13.71-2.83.67-3.6,1.94a1.35,1.35,0,0,0,.73,2c1,.51,2.19.79,2,2.25s-1.79,2.16-3,2.66c-.13,0-.17.26,0,.29a4.11,4.11,0,0,1,3.32,2.76,3,3,0,0,1-2.22,3.65.15.15,0,0,0,0,.29c1.47.35,3.87,1.13,3.69,3-.16,1.73-2.31,2.19-3.49,3.05s-2.38,3.39-.25,3.95c.79.2,1.45.22,2,.9a3,3,0,0,1,.67,2.06c-.1,1.78-1.64,2.21-3,2.83-.68.3-1.52.7-1.69,1.5a1.52,1.52,0,0,0,.82,1.63c1.12.61,2.68.28,3.68,1.14,1.16,1,.64,2.64-.42,3.47a6.66,6.66,0,0,1-3.09,1.11.16.16,0,0,0-.1.19,4.58,4.58,0,0,0,3.19,3v-.29l-3.35,1c-.11,0-.16.22,0,.28a9.33,9.33,0,0,1,2.75,1.75c.52.49,2.14,2,2,2.83-.08.33-.22.19-.59.21-.2,0-.41,0-.62,0a6.39,6.39,0,0,0-1.37.34A7,7,0,0,0,373.6,79a.15.15,0,0,0,0,.22A8.39,8.39,0,0,0,376.22,81c.21.09,1,.22,1.16.39.49.66-1,1.71-1.44,2a.15.15,0,0,0,.08.28c.51,0,3.4,1,2.61,1.77a5.88,5.88,0,0,1-1.35.28l-1.8.38a.15.15,0,0,0-.07.25,20.25,20.25,0,0,0,1.66,1.27c.38.26,1.75.83,1.73,1.21s-2.38,1-2.84,1.17a15.42,15.42,0,0,1-3,.54.15.15,0,0,0-.15.19c.3,1.49,1.9,1.83,3.19,2.09s3.93,1.43,2.3,3a4.59,4.59,0,0,1-2.31.68c-.67.11-2,.26-2,1.18,0,.65.67.82,1.19,1.08a10.8,10.8,0,0,0,3.29,1l0-.27L374.91,102a.15.15,0,0,0,0,.23,9.88,9.88,0,0,0,3.83,2.61c.23.09,1,.18,1.06.42s-1,.91-1,.89a4.75,4.75,0,0,1-3,.7.16.16,0,0,0-.11.26,8.13,8.13,0,0,0,1.82,1.54c.69.42,1.53.52,2.2.91.36,0,.51.11.42.47l-.34.44a3.31,3.31,0,0,1-1.45.91,3.19,3.19,0,0,1-2.77-.37.16.16,0,0,0-.15,0c-1.81,1.09.15,3.27,1.33,3.95a8.14,8.14,0,0,1,1.84,1.24c.21.21,1,1,.4,1.38-.05,0-1.12-.25-1.23-.26a4,4,0,0,0-3.23,1c-1.36,1.32-1.36,3.85.74,4.38a2.31,2.31,0,0,0,1.14,0c.17-.05.34-.18.51-.22.48-.12,0-.18.36,0a5.06,5.06,0,0,1,.57,1.36c-.17.46-.59.31-1,.32l-3.15.14a.15.15,0,0,0-.15.11c-.59,1.8,1.71,2.65,3.12,2.73,1.05.06,3.3-.15,3.79,1.09.22.56-.14.76-.61,1.06a5.12,5.12,0,0,1-1.36.58,6.34,6.34,0,0,1-2.6.17c-.09,0-.17.1-.14.19A9.43,9.43,0,0,0,378,134l.1-.26-4,.14a.15.15,0,0,0-.14.19,8.06,8.06,0,0,0,1.82,3.33c.1.11,1.46,1.16,1.46,1.24,0,.54-2.45.62-2.69.62a.15.15,0,0,0-.12.23,15.76,15.76,0,0,0,2.8,3.19c.29.24,1.25.76,1.2,1.14s-1.3.86-1.48.93a4.7,4.7,0,0,1-1.39.27c-.19,0-.19.32,0,.3a4.9,4.9,0,0,0,3.33-1.55.16.16,0,0,0,0-.24,12,12,0,0,1-3.72-3.53c-.34-.62,0-.42.65-.52a7.74,7.74,0,0,0,1.92-.64.15.15,0,0,0,0-.26,7.67,7.67,0,0,1-3.1-3.54c-.16-.37-.37-.59-.06-.87.14-.14.92,0,1.11,0l2.45-.09a.15.15,0,0,0,.11-.25,9.37,9.37,0,0,1-1.65-2.21c-.79-1.52-.28-1.07,1-1.23a6.49,6.49,0,0,0,3.36-1.51.15.15,0,0,0,0-.14c-.38-1.6-2.2-1.82-3.59-1.86-1.14,0-3.09-.12-3.5-1.46-.22-.72.08-.72.69-.83a10.45,10.45,0,0,1,1.13-.05l2.48-.1c.08,0,.18-.1.14-.19l-1-2.28a.15.15,0,0,0-.25-.06,1.85,1.85,0,0,1-2.25.34,2.05,2.05,0,0,1-.78-2.75c.93-2.06,3.35-2.1,5.21-1.44a.16.16,0,0,0,.19-.11,2.41,2.41,0,0,0-1.2-2.34c-.52-.4-1.12-.66-1.67-1S374.72,113,375,112.1c.34-1.12,1.19-.36,1.86-.28a3.85,3.85,0,0,0,1.55-.15,3.51,3.51,0,0,0,2.25-2.07.16.16,0,0,0-.1-.19,7.66,7.66,0,0,1-4.65-2.51l-.11.25a5.1,5.1,0,0,0,4.43-2c.06-.08.05-.23-.07-.25a9.63,9.63,0,0,1-4.34-2.22c-.78-.7,0-1,.63-1.46l2.16-1.56c.09-.06.1-.25,0-.27a11.49,11.49,0,0,1-2.08-.51c-.32-.12-2.12-.74-2.19-1.23-.13-.9,1.84-1,2.38-1.08,1.07-.19,2.72-.67,2.39-2.11-.43-1.88-3-1.84-4.41-2.35a2.93,2.93,0,0,1-1.1-.62c-.79-.8-.38-.59.06-.78a13,13,0,0,1,1.8-.32,14.51,14.51,0,0,0,3.94-1.6.15.15,0,0,0,0-.25,11.07,11.07,0,0,1-3.09-2c-.43-.47-.35-.16,0-.4a3,3,0,0,1,.9-.18l2-.43a.15.15,0,0,0,.09-.22,3.7,3.7,0,0,0-3.23-2l.07.28A4.11,4.11,0,0,0,378,81.39a.15.15,0,0,0-.1-.19,8.27,8.27,0,0,1-2.2-.79c-.62-.34-2-.94-1.25-1.69,1-1.07,3.1-1.27,4.47-1.16a.15.15,0,0,0,.15-.19,9.54,9.54,0,0,0-5.12-5.19l0,.27,3.35-1a.15.15,0,0,0,0-.29,3.91,3.91,0,0,1-2.66-2c-.24-.73.13-.64.69-.78a7.1,7.1,0,0,0,1.27-.45,3.14,3.14,0,0,0,2-3.11,2.36,2.36,0,0,0-2-1.88c-.65-.18-1.33-.22-2-.42a1.29,1.29,0,0,1-.27-2.5c1.06-.62,2.55-.82,3.3-1.89a3.19,3.19,0,0,0,.18-3.07,2.87,2.87,0,0,0-.82-1.07c-.61-.49-1.3-.32-1.94-.65-1.46-.75-.64-2.42.29-3.21a28.22,28.22,0,0,1,2.43-1.44A2.55,2.55,0,0,0,379,45.72c-.54-1.49-2.43-2.09-3.82-2.42v.29a3.25,3.25,0,0,0,2.52-3.51,4.27,4.27,0,0,0-3.62-3.48v.29c1.18-.47,2.54-1,3.09-2.27a2.08,2.08,0,0,0-.66-2.65,3.56,3.56,0,0,0-.6-.27c-.28-.1-.56-.21-.83-.33-.76-.73-.83-1.35-.22-1.87a7.44,7.44,0,0,1,2.6-1.2c.92-.39,1.78-1,1.65-2.08a.19.19,0,0,0-.11-.15A7.3,7.3,0,0,1,376,24l-.1.26A5.11,5.11,0,0,0,378.84,23a.15.15,0,0,0,0-.21l-2.45-2.48a.15.15,0,1,0-.21.21Z"/><path class="cls-2" d="M405.82,21l-2.86.11c-.12,0-.21.17-.1.26a15.11,15.11,0,0,1,1.3,1.1c.5.52.41.32.23.85a5.43,5.43,0,0,0-.47,1.56,3.12,3.12,0,0,0,.36,1.59c.18.35.41.45.33.87s-.84,1-1.08,1.22a.17.17,0,0,0,0,.22c.59.49,1.23,1.18.76,1.9-.3.46-.72.78-1,1.3a.15.15,0,0,0,.06.2c.57.35,1.22.7,1.33,1.4s-.35,1-.76,1.53a.15.15,0,0,0,0,.18c.23.23,1.16.91,1.21,1.22s-.06.23-.27.52a1.61,1.61,0,0,0-.3,1,2.33,2.33,0,0,0,.37,1c.19.42.26.16-.2.7s-.81.85-1.21,1.27a.16.16,0,0,0,0,.24A5.17,5.17,0,0,1,405.52,44l.22-.17a1.25,1.25,0,0,0-1.75.71,2,2,0,0,0,.08,1.45c0,.07.37.6.35.71-.06.52-.92.77-1.31,1a.16.16,0,0,0-.07.17,12,12,0,0,1,.87,4.65c0,1.2-.34,2.34-.47,3.51s-.1,3,1.45,3.41l0-.27a4.27,4.27,0,0,0-2,2.63,2.13,2.13,0,0,0,.14.86c.1.39.2.11.11.51s-1,.91-1.21,1.15a.15.15,0,0,0,0,.21L403.77,66c.19.16.78.5.81.71s0,.05-.18.26c-.45.63-.9.94-1.06,1.76a3.09,3.09,0,0,0,.19,1.85c.21.45.52.54.37,1s-1.18,1.37-1.6,1.86a.15.15,0,0,0,0,.18l.66,1.17A5.85,5.85,0,0,1,403.6,76c.07.72-1.46,1.53-2,1.92-.08.06,0,.19,0,.24l3.25,2.1,0-.27A2.43,2.43,0,0,0,403,82.36a3.33,3.33,0,0,0,.49,1.58c.18.4.23,0,.07.48s-1.3,1.27-1.69,1.65a.17.17,0,0,0,0,.22l2.6,3.14.11-.26a2.16,2.16,0,0,0-2.21,2.41,5.49,5.49,0,0,0,1.14,2.5c.31.52.29.52-.19.92s-1.24.84-1.85,1.25a.16.16,0,0,0-.05.21,10.47,10.47,0,0,0,1.25,2,6.41,6.41,0,0,1,.79.88c.09.46-.89.9-1.2,1.13a.18.18,0,0,0-.07.17,16.93,16.93,0,0,0,2.43,5.37l.17-.23a1.81,1.81,0,0,0-2.21,1,.15.15,0,0,0,.05.2l3,2.15,0-.28A5.92,5.92,0,0,0,403,111a.16.16,0,0,0,.05.21l2.14,1.43.08-.28a3.35,3.35,0,0,0-2.53,1.2.15.15,0,0,0,0,.21c.47.45,1,.89,1.41,1.36s.48.3.27.61c-.31.48-.73.61-.86,1.28a.17.17,0,0,0,.07.17l2.67,1.53.11-.28a1.12,1.12,0,0,0-1.37,1.26c.05.62.59.84.81,1.32s-1.85,1.57-2.37,1.91a.16.16,0,0,0,0,.24c.27.34,1.22,1.24,1.13,1.63s-1.24.78-1.6,1a.16.16,0,0,0,0,.24c.28.3,1.07.88,1.18,1.27.16.54,0,.19-.09.58a3.46,3.46,0,0,0-.32,1.62,2.54,2.54,0,0,0,.53,1.29s.44.47.45.43c-.15.43-1.7.25-2.08.2a.16.16,0,0,0-.15.19,7.31,7.31,0,0,0,1,1.8c.29.36.62.48.49,1s-1.09,1-1.38,1.27a.17.17,0,0,0,0,.22l2.19,2.55.15-.25c-2.58-.56-.17,4.49-1.89,4.77-.13,0-.13.21,0,.28.3.17,1.45.63,1.58.94.22.52.05,0-.07.58a2.27,2.27,0,0,0,.07,1.68c.08.18.34,0,.26-.15a1.5,1.5,0,0,1,.32-1.9.16.16,0,0,0,0-.24l-2-1.17,0,.27c.65-.11.9-.57,1-1.19s-.85-3.93.75-3.58a.15.15,0,0,0,.15-.25,11.72,11.72,0,0,1-1.73-2c-.39-.81.68-1.39,1.26-1.92a.16.16,0,0,0,0-.22,6.74,6.74,0,0,1-1.05-1.15,6.92,6.92,0,0,1-.42-.68q-.28-.57.15-.45c.19-.1.62,0,.86-.07a4.53,4.53,0,0,0,1-.34c.1,0,.08-.2,0-.25a2.25,2.25,0,0,1-.47-3.5.14.14,0,0,0,0-.21c-.26-.29-1.22-1.07-1.15-1.42s1.27-.78,1.6-.94a.16.16,0,0,0,0-.24c-.47-.58-1.48-1.34-.89-2a11.51,11.51,0,0,1,2.18-1.42.15.15,0,0,0,0-.24c-.17-.14-.34-.29-.5-.45-.72-.57-.59-1.22.39-2a.15.15,0,0,0,.12-.27l-1.52-.88c-.81-.46-1.61-1.27.07-1.73a.15.15,0,0,0,.06-.25c-.4-.39-1.57-1.17-1.76-1.7-.32-.91,1.27-1.22,2-1.24a.15.15,0,0,0,.07-.28l-1.07-.72c-.37-.25-.68-.29-.65-.76.07-.82,1.52-1.44,2.14-1.69a.15.15,0,0,0,0-.27l-1.87-1.34c-.17-.13-.66-.35-.75-.54-.45-.91,1.09-1.06,1.55-.94a.15.15,0,0,0,.17-.22,16.81,16.81,0,0,1-1.77-3.29,4.92,4.92,0,0,1-.52-1.6c.06-.65.87-1,1.34-1.33a.17.17,0,0,0,0-.24,6.5,6.5,0,0,1-2-2.58c-.2-.84,1.63-1.64,2.28-2.07a.16.16,0,0,0,0-.24,6.21,6.21,0,0,1-1.49-2.43c-.24-1.2.31-2.77,1.82-2.62.14,0,.18-.16.11-.25a21.45,21.45,0,0,1-2-2.45c-.37-.61-.35-.57.1-1.15a15.31,15.31,0,0,1,1.35-1.32.15.15,0,0,0,0-.24,2.19,2.19,0,0,1,.91-3.8.16.16,0,0,0,0-.28,12.21,12.21,0,0,1-2.64-1.71c-.38-.45-.11-.52.34-.87l1.29-1a.15.15,0,0,0,0-.18,9.82,9.82,0,0,1-1.31-2.33c-.15-.81,1.18-1.88,1.67-2.44a.15.15,0,0,0,0-.21,2.64,2.64,0,0,1,.63-4.3.15.15,0,0,0,0-.23,24.49,24.49,0,0,1-2.21-1.84c-.43-.46-.51-.41-.13-1a5.72,5.72,0,0,1,.91-.86.17.17,0,0,0,0-.22c-1.33-1.09.41-2.8,1.35-3.45a.16.16,0,0,0,0-.28c-2.28-.54-1-4.21-.81-5.75a11.85,11.85,0,0,0-.11-3.09c-.11-.63-.43-1.28-.49-1.9-.08-.8.63-1,1.26-1.31a.15.15,0,0,0,.06-.2,3.72,3.72,0,0,1-.51-1c-.15-.62.1-2.38,1.22-1.8.11.05.26,0,.22-.17a5.4,5.4,0,0,0-1.31-2.24c-.38-.39-.6-.38-.3-.89a10.2,10.2,0,0,1,1.36-1.43.15.15,0,0,0,0-.24,1.28,1.28,0,0,1,.11-2.27.16.16,0,0,0,0-.24c-.27-.27-1.11-.86-1.21-1.22-.17-.61.52-1.16.85-1.6a.14.14,0,0,0,0-.15,9.43,9.43,0,0,0-1.12-1.24c-.2-.21-.46-.21-.47-.58s1-1.07,1.18-1.22a.16.16,0,0,0,.07-.17,7.29,7.29,0,0,0-.7-1.36c-.26-.48-.33-.35,0-.9a8.88,8.88,0,0,1,.81-.92.15.15,0,0,0,0-.21,2.85,2.85,0,0,1-.06-4,.15.15,0,0,0,0-.21l-2-1.65-.11.25,2.86-.11c.19,0,.19-.31,0-.3Z"/><text class="cls-3" transform="translate(33.25 164.83)">1A</text><text class="cls-3" transform="translate(66.01 164.83)">1B</text><text class="cls-3" transform="translate(94.47 164.83)">1C</text><text class="cls-3" transform="translate(140.52 164.83)">2A</text><text class="cls-3" transform="translate(169.86 164.83)">2B</text><text class="cls-3" transform="translate(199.04 164.83)">2C</text><text class="cls-3" transform="translate(236.79 164.83)">3A</text><text class="cls-3" transform="translate(265.23 164.83)">3B</text><text class="cls-3" transform="translate(292.93 164.83)">3C</text><text class="cls-3" transform="translate(337.96 164.83)">4A</text><text class="cls-3" transform="translate(368.51 164.83)">4B</text><text class="cls-3" transform="translate(399.49 164.83)">4C</text></g></g></svg>