<svg xmlns="http://www.w3.org/2000/svg" viewBox="0 0 10.38 10.37"><defs><style>.cls-1{fill:#e26d26;}.cls-2{fill:#fff;}</style></defs><g id="Capa_2" data-name="Capa 2"><g id="Capa_4" data-name="Capa 4"><ellipse class="cls-1" cx="5.19" cy="5.18" rx="5.19" ry="5.18"/><path class="cls-2" d="M7,4.39a1.73,1.73,0,0,0,0-.45,1.87,1.87,0,1,0-3.74,0,2.3,2.3,0,0,0,.05.45,2.59,2.59,0,0,0,.21.72c.18.39,1,1.66,1.31,2.24-.48.06-.7.27-.7.46s.31.48,1,.48,1-.24,1-.48-.23-.4-.71-.46c.36-.58,1.13-1.85,1.32-2.24A3,3,0,0,0,7,4.39ZM5.91,7.81c0,.06-.26.2-.72.2s-.7-.14-.71-.19.21-.17.58-.19h0a.13.13,0,0,0,.12.07.12.12,0,0,0,.12-.07h0A.91.91,0,0,1,5.91,7.81Zm.82-3.49h0A3,3,0,0,1,6.55,5c-.19.39-1,1.78-1.36,2.3C4.87,6.77,4,5.38,3.84,5a2.21,2.21,0,0,1-.18-.66h0a1.59,1.59,0,1,1,3.13-.38A1.58,1.58,0,0,1,6.73,4.32Z"/><path class="cls-2" d="M5.19,2.89a1,1,0,1,0,1,1A1,1,0,0,0,5.19,2.89Zm0,1.72a.72.72,0,1,1,.72-.71A.71.71,0,0,1,5.19,4.61Z"/></g></g></svg>