<svg xmlns="http://www.w3.org/2000/svg" viewBox="0 0 48.99 48.99"><defs><style>.cls-1{fill:#e36d13;}.cls-2{fill:#fff;}</style></defs><g id="Capa_2" data-name="Capa 2"><g id="Capa_6" data-name="Capa 6"><circle class="cls-1" cx="24.49" cy="24.49" r="24.49"/><path class="cls-2" d="M38.72,21.08A14.65,14.65,0,0,0,24.48,9.8a18.45,18.45,0,0,0-2.78.29,14.56,14.56,0,0,0-10,21.25,1,1,0,0,1,.13.73c-.68,2.22-1.32,4.52-1.91,6.77-.11.39-.11.39.28.3,2.36-.66,4.7-1.25,7-1.84a.66.66,0,0,1,.52,0,14.78,14.78,0,0,0,9.58,1.34A14.62,14.62,0,0,0,38.72,21.08ZM26.55,36.34a6.33,6.33,0,0,1-1.69.14,12.45,12.45,0,0,1-6.57-1.69.86.86,0,0,0-.75-.11c-1.32.32-2.62.68-3.91,1-.28.09-.3,0-.23-.25.34-1.18.66-2.41,1-3.66a1,1,0,0,0-.16-.86,12,12,0,0,1,.43-13.58,11.54,11.54,0,0,1,12.33-4.76,11.39,11.39,0,0,1,9.26,9.19A12,12,0,0,1,26.55,36.34Z"/><path class="cls-2" d="M31.87,28.63c-.09,1.55-1.25,2.3-2.59,2.68a3,3,0,0,1-1,0,3.85,3.85,0,0,1-1.5-.21,14.52,14.52,0,0,1-7.9-5.8,8.31,8.31,0,0,1-1.7-3.41A4,4,0,0,1,18.52,18a2.3,2.3,0,0,1,1.95-.3,2.2,2.2,0,0,1,.32.39c.41,1,.84,2,1.28,3a.81.81,0,0,1-.07.62,6.91,6.91,0,0,1-.89,1.2.56.56,0,0,0-.09.8A9.74,9.74,0,0,0,26,28a.56.56,0,0,0,.75-.18c.37-.43.73-.89,1.09-1.36a.6.6,0,0,1,.8-.18c.73.31,1.43.65,2.12.95a2,2,0,0,0,.47.23C32,27.81,32,27.86,31.87,28.63Z"/></g></g></svg>